<?xml version="1.0" encoding="utf-8"?>
<!-- Generated by IcoMoon.io -->
<!DOCTYPE svg PUBLIC "-//W3C//DTD SVG 1.1//EN" "http://www.w3.org/Graphics/SVG/1.1/DTD/svg11.dtd">
<svg version="1.1" xmlns="http://www.w3.org/2000/svg" xmlns:xlink="http://www.w3.org/1999/xlink" width="18" height="32" viewBox="0 0 18 32">
<path fill="rgb(0, 0, 0)" d="M16.086 1.606h-14.173c-0.797 0-1.444 0.647-1.444 1.444v25.901c0 0.798 0.647 1.444 1.444 1.444h14.173c0.797 0 1.444-0.646 1.444-1.444v-25.901c0-0.797-0.647-1.444-1.444-1.444zM16.464 28.951c0 0.208-0.169 0.377-0.377 0.377h-14.173c-0.208 0-0.377-0.169-0.377-0.377v-4.95h14.927v4.95zM16.464 22.934h-14.928v-17.042h14.928v17.042zM16.464 4.826h-14.928v-1.776c0-0.208 0.169-0.378 0.377-0.378h14.173c0.208 0 0.377 0.17 0.377 0.378v1.776zM7.401 26.129h3.199v1.066h-3.199v-1.066z"></path>
</svg>
