<?xml version="1.0" encoding="utf-8"?>
<!-- Generated by IcoMoon.io -->
<!DOCTYPE svg PUBLIC "-//W3C//DTD SVG 1.1//EN" "http://www.w3.org/Graphics/SVG/1.1/DTD/svg11.dtd">
<svg version="1.1" xmlns="http://www.w3.org/2000/svg" xmlns:xlink="http://www.w3.org/1999/xlink" width="26" height="32" viewBox="0 0 26 32">
<path fill="rgb(0, 0, 0)" d="M19.544 9.602c0.889-0.782 1.453-1.924 1.453-3.198 0-2.352-1.913-4.265-4.265-4.265-1.605 0-3.004 0.892-3.732 2.205-0.728-1.313-2.127-2.205-3.732-2.205-2.352 0-4.265 1.913-4.265 4.265 0 1.274 0.564 2.416 1.453 3.198h-6.251v20.259h25.59v-20.259h-6.251zM24.729 10.668v8.53h-11.196v-8.53h0.681l2.588 4.53 0.926-0.529-2.286-4.001h9.287zM13 8.544l0.604 1.058h-1.209l0.604-1.058zM16.732 3.205c1.764 0 3.199 1.435 3.199 3.199s-1.435 3.198-3.199 3.198c-1.764 0-3.199-1.434-3.199-3.198s1.435-3.199 3.199-3.199zM6.069 6.404c0-1.764 1.435-3.199 3.199-3.199s3.199 1.435 3.199 3.199c0 1.763-1.435 3.198-3.199 3.198s-3.199-1.434-3.199-3.198zM10.558 10.668l-2.286 4 0.926 0.529 2.588-4.53h0.681v8.53h-11.196v-8.53h9.287zM1.271 20.265h11.196v8.53h-11.196v-8.53zM13.533 28.794v-8.53h11.196v8.53h-11.196z"></path>
</svg>
