<?xml version="1.0" encoding="utf-8"?>
<!-- Generated by IcoMoon.io -->
<!DOCTYPE svg PUBLIC "-//W3C//DTD SVG 1.1//EN" "http://www.w3.org/Graphics/SVG/1.1/DTD/svg11.dtd">
<svg version="1.1" xmlns="http://www.w3.org/2000/svg" xmlns:xlink="http://www.w3.org/1999/xlink" width="32" height="32" viewBox="0 0 32 32">
<path fill="rgb(0, 0, 0)" d="M16 8.010c-4.417 0-7.997 3.581-7.997 7.998 0 4.415 3.58 7.996 7.997 7.996s7.997-3.58 7.997-7.996c0-4.416-3.58-7.998-7.997-7.998zM16 22.938c-3.821 0-6.931-3.109-6.931-6.93 0-3.822 3.109-6.932 6.931-6.932s6.931 3.11 6.931 6.932c0 3.821-3.109 6.93-6.931 6.93zM15.471 0.006h1.066v6.405h-1.066v-6.405zM15.471 25.604h1.066v6.39h-1.066v-6.39zM0.006 15.467h6.397v1.066h-6.397v-1.066zM25.596 15.467h6.398v1.066h-6.398v-1.066zM26.936 4.28l0.754 0.754-4.458 4.458-0.754-0.754 4.458-4.458zM5.072 27.653l-0.754-0.754 4.458-4.458 0.754 0.754-4.458 4.458zM5.072 4.281l4.458 4.458-0.754 0.754-4.458-4.458 0.754-0.754zM26.937 27.654l-4.458-4.458 0.754-0.754 4.458 4.458-0.754 0.754z"></path>
</svg>
