<?xml version="1.0" encoding="utf-8"?>
<!-- Generated by IcoMoon.io -->
<!DOCTYPE svg PUBLIC "-//W3C//DTD SVG 1.1//EN" "http://www.w3.org/Graphics/SVG/1.1/DTD/svg11.dtd">
<svg version="1.1" xmlns="http://www.w3.org/2000/svg" xmlns:xlink="http://www.w3.org/1999/xlink" width="30" height="32" viewBox="0 0 30 32">
<path fill="rgb(0, 0, 0)" d="M29.394 4.005h-28.789v1.066h2.132v19.192h11.729v2.666h-8.53v1.066h18.126v-1.066h-8.53v-2.666h11.729v-19.192h2.133v-1.066zM26.196 23.197h-22.391v-18.126h22.391v18.126zM13.401 8.27h-6.397v6.398h6.397v-6.398zM12.334 13.601h-4.265v-4.265h4.265v4.265zM15.533 13.601h7.464v1.066h-7.464v-1.066zM15.533 8.27h7.464v1.066h-7.464v-1.066zM15.533 10.935h7.464v1.066h-7.464v-1.066zM7.003 16.8h15.994v1.066h-15.994v-1.066zM7.003 19.998h15.994v1.066h-15.994v-1.066z"></path>
</svg>
