<?xml version="1.0" encoding="utf-8"?>
<!-- Generated by IcoMoon.io -->
<!DOCTYPE svg PUBLIC "-//W3C//DTD SVG 1.1//EN" "http://www.w3.org/Graphics/SVG/1.1/DTD/svg11.dtd">
<svg version="1.1" xmlns="http://www.w3.org/2000/svg" xmlns:xlink="http://www.w3.org/1999/xlink" width="20" height="32" viewBox="0 0 20 32">
<path fill="rgb(0, 0, 0)" d="M2.536 10.136h14.928v-4.265h-14.928v4.265zM3.603 6.937h12.795v2.132h-12.795v-2.133zM17.464 3.205h-14.928c-1.178 0-2.132 0.955-2.132 2.133v21.325c0 1.178 0.955 2.133 2.132 2.133h14.928c1.178 0 2.133-0.955 2.133-2.133v-21.325c0-1.178-0.955-2.132-2.133-2.132zM18.53 26.663c0 0.588-0.478 1.066-1.066 1.066h-14.928c-0.588 0-1.066-0.478-1.066-1.066v-21.325c0-0.587 0.478-1.066 1.066-1.066h14.928c0.588 0 1.066 0.479 1.066 1.066v21.325zM3.603 14.934v-3.199h-1.066v4.265h4.265v-1.066h-1.066zM3.603 20.265v-3.199h-1.066v4.265h4.265v-1.066h-1.066zM3.603 25.596v-3.199h-1.066v4.265h4.265v-1.066h-1.066zM8.934 14.934v-3.199h-1.066v4.265h4.265v-1.066h-1.066zM14.265 14.934v-3.199h-1.066v4.265h4.265v-1.066h-1.066zM8.934 20.265v-3.199h-1.066v4.265h4.265v-1.066h-1.066zM8.934 25.596v-3.199h-1.066v4.265h4.265v-1.066h-1.066zM14.265 25.596v-8.53h-1.066v9.596h4.265v-1.066h-1.066z"></path>
</svg>
