<?xml version="1.0" encoding="utf-8"?>
<!-- Generator: Adobe Illustrator 21.0.2, SVG Export Plug-In . SVG Version: 6.00 Build 0)  -->
<svg version="1.1" id="Layer_1" xmlns="http://www.w3.org/2000/svg" xmlns:xlink="http://www.w3.org/1999/xlink" x="0px" y="0px"
	 viewBox="0 0 96.4 32" style="enable-background:new 0 0 96.4 32;" xml:space="preserve">
<style type="text/css">
	.st0{fill:#353535;}
	.st1{fill:#F05F67;}
	.st2{fill:#EE3D4F;}
	.st3{opacity:0.5;}
	.st4{fill:#FFFFFF;fill-opacity:0;}
	.st5{opacity:1.700000e-03;fill:#FEFEFE;enable-background:new    ;}
	.st6{opacity:3.300000e-03;fill:#FDFDFD;enable-background:new    ;}
	.st7{opacity:5.000000e-03;fill:#FCFCFC;enable-background:new    ;}
	.st8{opacity:6.600000e-03;fill:#FCFCFC;enable-background:new    ;}
	.st9{opacity:8.300000e-03;fill:#FBFBFB;enable-background:new    ;}
	.st10{opacity:1.000000e-02;fill:#FAFAFA;enable-background:new    ;}
	.st11{opacity:1.160000e-02;fill:#F9F9F9;enable-background:new    ;}
	.st12{opacity:1.330000e-02;fill:#F8F8F8;enable-background:new    ;}
	.st13{opacity:1.500000e-02;fill:#F7F7F7;enable-background:new    ;}
	.st14{opacity:1.660000e-02;fill:#F7F7F7;enable-background:new    ;}
	.st15{opacity:1.830000e-02;fill:#F6F6F6;enable-background:new    ;}
	.st16{opacity:1.990000e-02;fill:#F5F5F5;enable-background:new    ;}
	.st17{opacity:2.160000e-02;fill:#F4F4F4;enable-background:new    ;}
	.st18{opacity:2.330000e-02;fill:#F3F3F3;enable-background:new    ;}
	.st19{opacity:2.490000e-02;fill:#F2F2F2;enable-background:new    ;}
	.st20{opacity:2.660000e-02;fill:#F1F1F1;enable-background:new    ;}
	.st21{opacity:2.820000e-02;fill:#F1F1F1;enable-background:new    ;}
	.st22{opacity:2.990000e-02;fill:#F0F0F0;enable-background:new    ;}
	.st23{opacity:3.160000e-02;fill:#EFEFEF;enable-background:new    ;}
	.st24{opacity:3.320000e-02;fill:#EEEEEE;enable-background:new    ;}
	.st25{opacity:3.490000e-02;fill:#EDEDED;enable-background:new    ;}
	.st26{opacity:3.650000e-02;fill:#ECECEC;enable-background:new    ;}
	.st27{opacity:3.820000e-02;fill:#ECECEC;enable-background:new    ;}
	.st28{opacity:3.990000e-02;fill:#EBEBEB;enable-background:new    ;}
	.st29{opacity:4.150000e-02;fill:#EAEAEA;enable-background:new    ;}
	.st30{opacity:4.320000e-02;fill:#E9E9E9;enable-background:new    ;}
	.st31{opacity:4.490000e-02;fill:#E8E8E8;enable-background:new    ;}
	.st32{opacity:4.650000e-02;fill:#E7E7E7;enable-background:new    ;}
	.st33{opacity:4.820000e-02;fill:#E6E6E6;enable-background:new    ;}
	.st34{opacity:4.980000e-02;fill:#E6E6E6;enable-background:new    ;}
	.st35{opacity:5.150000e-02;fill:#E5E5E5;enable-background:new    ;}
	.st36{opacity:5.320000e-02;fill:#E4E4E4;enable-background:new    ;}
	.st37{opacity:5.480000e-02;fill:#E3E3E3;enable-background:new    ;}
	.st38{opacity:5.650000e-02;fill:#E2E2E2;enable-background:new    ;}
	.st39{opacity:5.810000e-02;fill:#E1E1E1;enable-background:new    ;}
	.st40{opacity:5.980000e-02;fill:#E1E1E1;enable-background:new    ;}
	.st41{opacity:6.150000e-02;fill:#E0E0E0;enable-background:new    ;}
	.st42{opacity:6.310000e-02;fill:#DFDFDF;enable-background:new    ;}
	.st43{opacity:6.480000e-02;fill:#DEDEDE;enable-background:new    ;}
	.st44{opacity:6.640000e-02;fill:#DDDDDD;enable-background:new    ;}
	.st45{opacity:6.810000e-02;fill:#DCDCDC;enable-background:new    ;}
	.st46{opacity:6.980000e-02;fill:#DBDBDB;enable-background:new    ;}
	.st47{opacity:7.140000e-02;fill:#DBDBDB;enable-background:new    ;}
	.st48{opacity:7.310000e-02;fill:#DADADA;enable-background:new    ;}
	.st49{opacity:7.480000e-02;fill:#D9D9D9;enable-background:new    ;}
	.st50{opacity:7.640000e-02;fill:#D8D8D8;enable-background:new    ;}
	.st51{opacity:7.810000e-02;fill:#D7D7D7;enable-background:new    ;}
	.st52{opacity:7.970000e-02;fill:#D6D6D6;enable-background:new    ;}
	.st53{opacity:8.140000e-02;fill:#D5D5D5;enable-background:new    ;}
	.st54{opacity:8.310000e-02;fill:#D5D5D5;enable-background:new    ;}
	.st55{opacity:8.470000e-02;fill:#D4D4D4;enable-background:new    ;}
	.st56{opacity:8.640000e-02;fill:#D3D3D3;enable-background:new    ;}
	.st57{opacity:8.800000e-02;fill:#D2D2D2;enable-background:new    ;}
	.st58{opacity:8.970000e-02;fill:#D1D1D1;enable-background:new    ;}
	.st59{opacity:9.140000e-02;fill:#D0D0D0;enable-background:new    ;}
	.st60{opacity:9.300000e-02;fill:#D0D0D0;enable-background:new    ;}
	.st61{opacity:9.470000e-02;fill:#CFCFCF;enable-background:new    ;}
	.st62{opacity:9.630000e-02;fill:#CECECE;enable-background:new    ;}
	.st63{opacity:9.800000e-02;fill:#CDCDCD;enable-background:new    ;}
	.st64{opacity:9.970000e-02;fill:#CCCCCC;enable-background:new    ;}
	.st65{opacity:0.1013;fill:#CBCBCB;enable-background:new    ;}
	.st66{opacity:0.103;fill:#CACACA;enable-background:new    ;}
	.st67{opacity:0.1047;fill:#CACACA;enable-background:new    ;}
	.st68{opacity:0.1063;fill:#C9C9C9;enable-background:new    ;}
	.st69{opacity:0.108;fill:#C8C8C8;enable-background:new    ;}
	.st70{opacity:0.1096;fill:#C7C7C7;enable-background:new    ;}
	.st71{opacity:0.1113;fill:#C6C6C6;enable-background:new    ;}
	.st72{opacity:0.113;fill:#C5C5C5;enable-background:new    ;}
	.st73{opacity:0.1146;fill:#C5C5C5;enable-background:new    ;}
	.st74{opacity:0.1163;fill:#C4C4C4;enable-background:new    ;}
	.st75{opacity:0.1179;fill:#C3C3C3;enable-background:new    ;}
	.st76{opacity:0.1196;fill:#C2C2C2;enable-background:new    ;}
	.st77{opacity:0.1213;fill:#C1C1C1;enable-background:new    ;}
	.st78{opacity:0.1229;fill:#C0C0C0;enable-background:new    ;}
	.st79{opacity:0.1246;fill:#BFBFBF;enable-background:new    ;}
	.st80{opacity:0.1262;fill:#BFBFBF;enable-background:new    ;}
	.st81{opacity:0.1279;fill:#BEBEBE;enable-background:new    ;}
	.st82{opacity:0.1296;fill:#BDBDBD;enable-background:new    ;}
	.st83{opacity:0.1312;fill:#BCBCBC;enable-background:new    ;}
	.st84{opacity:0.1329;fill:#BBBBBB;enable-background:new    ;}
	.st85{opacity:0.1346;fill:#BABABA;enable-background:new    ;}
	.st86{opacity:0.1362;fill:#BABABA;enable-background:new    ;}
	.st87{opacity:0.1379;fill:#B9B9B9;enable-background:new    ;}
	.st88{opacity:0.1395;fill:#B8B8B8;enable-background:new    ;}
	.st89{opacity:0.1412;fill:#B7B7B7;enable-background:new    ;}
	.st90{opacity:0.1429;fill:#B6B6B6;enable-background:new    ;}
	.st91{opacity:0.1445;fill:#B5B5B5;enable-background:new    ;}
	.st92{opacity:0.1462;fill:#B4B4B4;enable-background:new    ;}
	.st93{opacity:0.1478;fill:#B4B4B4;enable-background:new    ;}
	.st94{opacity:0.1495;fill:#B3B3B3;enable-background:new    ;}
	.st95{opacity:0.1512;fill:#B2B2B2;enable-background:new    ;}
	.st96{opacity:0.1528;fill:#B1B1B1;enable-background:new    ;}
	.st97{opacity:0.1545;fill:#B0B0B0;enable-background:new    ;}
	.st98{opacity:0.1561;fill:#AFAFAF;enable-background:new    ;}
	.st99{opacity:0.1578;fill:#AFAFAF;enable-background:new    ;}
	.st100{opacity:0.1595;fill:#AEAEAE;enable-background:new    ;}
	.st101{opacity:0.1611;fill:#ADADAD;enable-background:new    ;}
	.st102{opacity:0.1628;fill:#ACACAC;enable-background:new    ;}
	.st103{opacity:0.1645;fill:#ABABAB;enable-background:new    ;}
	.st104{opacity:0.1661;fill:#AAAAAA;enable-background:new    ;}
	.st105{opacity:0.1678;fill:#A9A9A9;enable-background:new    ;}
	.st106{opacity:0.1694;fill:#A9A9A9;enable-background:new    ;}
	.st107{opacity:0.1711;fill:#A8A8A8;enable-background:new    ;}
	.st108{opacity:0.1728;fill:#A7A7A7;enable-background:new    ;}
	.st109{opacity:0.1744;fill:#A6A6A6;enable-background:new    ;}
	.st110{opacity:0.1761;fill:#A5A5A5;enable-background:new    ;}
	.st111{opacity:0.1777;fill:#A4A4A4;enable-background:new    ;}
	.st112{opacity:0.1794;fill:#A4A4A4;enable-background:new    ;}
	.st113{opacity:0.1811;fill:#A3A3A3;enable-background:new    ;}
	.st114{opacity:0.1827;fill:#A2A2A2;enable-background:new    ;}
	.st115{opacity:0.1844;fill:#A1A1A1;enable-background:new    ;}
	.st116{opacity:0.186;fill:#A0A0A0;enable-background:new    ;}
	.st117{opacity:0.1877;fill:#9F9F9F;enable-background:new    ;}
	.st118{opacity:0.1894;fill:#9E9E9E;enable-background:new    ;}
	.st119{opacity:0.191;fill:#9E9E9E;enable-background:new    ;}
	.st120{opacity:0.1927;fill:#9D9D9D;enable-background:new    ;}
	.st121{opacity:0.1944;fill:#9C9C9C;enable-background:new    ;}
	.st122{opacity:0.196;fill:#9B9B9B;enable-background:new    ;}
	.st123{opacity:0.1977;fill:#9A9A9A;enable-background:new    ;}
	.st124{opacity:0.1993;fill:#999999;enable-background:new    ;}
	.st125{opacity:0.201;fill:#989898;enable-background:new    ;}
	.st126{opacity:0.2027;fill:#989898;enable-background:new    ;}
	.st127{opacity:0.2043;fill:#979797;enable-background:new    ;}
	.st128{opacity:0.206;fill:#969696;enable-background:new    ;}
	.st129{opacity:0.2076;fill:#959595;enable-background:new    ;}
	.st130{opacity:0.2093;fill:#949494;enable-background:new    ;}
	.st131{opacity:0.211;fill:#939393;enable-background:new    ;}
	.st132{opacity:0.2126;fill:#939393;enable-background:new    ;}
	.st133{opacity:0.2143;fill:#929292;enable-background:new    ;}
	.st134{opacity:0.2159;fill:#919191;enable-background:new    ;}
	.st135{opacity:0.2176;fill:#909090;enable-background:new    ;}
	.st136{opacity:0.2193;fill:#8F8F8F;enable-background:new    ;}
	.st137{opacity:0.2209;fill:#8E8E8E;enable-background:new    ;}
	.st138{opacity:0.2226;fill:#8D8D8D;enable-background:new    ;}
	.st139{opacity:0.2243;fill:#8D8D8D;enable-background:new    ;}
	.st140{opacity:0.2259;fill:#8C8C8C;enable-background:new    ;}
	.st141{opacity:0.2276;fill:#8B8B8B;enable-background:new    ;}
	.st142{opacity:0.2292;fill:#8A8A8A;enable-background:new    ;}
	.st143{opacity:0.2309;fill:#898989;enable-background:new    ;}
	.st144{opacity:0.2326;fill:#888888;enable-background:new    ;}
	.st145{opacity:0.2342;fill:#888888;enable-background:new    ;}
	.st146{opacity:0.2359;fill:#878787;enable-background:new    ;}
	.st147{opacity:0.2375;fill:#868686;enable-background:new    ;}
	.st148{opacity:0.2392;fill:#858585;enable-background:new    ;}
	.st149{opacity:0.2409;fill:#848484;enable-background:new    ;}
	.st150{opacity:0.2425;fill:#838383;enable-background:new    ;}
	.st151{opacity:0.2442;fill:#828282;enable-background:new    ;}
	.st152{opacity:0.2458;fill:#828282;enable-background:new    ;}
	.st153{opacity:0.2475;fill:#818181;enable-background:new    ;}
	.st154{opacity:0.2492;fill:#808080;enable-background:new    ;}
	.st155{opacity:0.2508;fill:#7F7F7F;enable-background:new    ;}
	.st156{opacity:0.2525;fill:#7E7E7E;enable-background:new    ;}
	.st157{opacity:0.2542;fill:#7D7D7D;enable-background:new    ;}
	.st158{opacity:0.2558;fill:#7D7D7D;enable-background:new    ;}
	.st159{opacity:0.2575;fill:#7C7C7C;enable-background:new    ;}
	.st160{opacity:0.2591;fill:#7B7B7B;enable-background:new    ;}
	.st161{opacity:0.2608;fill:#7A7A7A;enable-background:new    ;}
	.st162{opacity:0.2625;fill:#797979;enable-background:new    ;}
	.st163{opacity:0.2641;fill:#787878;enable-background:new    ;}
	.st164{opacity:0.2658;fill:#777777;enable-background:new    ;}
	.st165{opacity:0.2674;fill:#777777;enable-background:new    ;}
	.st166{opacity:0.2691;fill:#767676;enable-background:new    ;}
	.st167{opacity:0.2708;fill:#757575;enable-background:new    ;}
	.st168{opacity:0.2724;fill:#747474;enable-background:new    ;}
	.st169{opacity:0.2741;fill:#737373;enable-background:new    ;}
	.st170{opacity:0.2757;fill:#727272;enable-background:new    ;}
	.st171{opacity:0.2774;fill:#727272;enable-background:new    ;}
	.st172{opacity:0.2791;fill:#717171;enable-background:new    ;}
	.st173{opacity:0.2807;fill:#707070;enable-background:new    ;}
	.st174{opacity:0.2824;fill:#6F6F6F;enable-background:new    ;}
	.st175{opacity:0.2841;fill:#6E6E6E;enable-background:new    ;}
	.st176{opacity:0.2857;fill:#6D6D6D;enable-background:new    ;}
	.st177{opacity:0.2874;fill:#6C6C6C;enable-background:new    ;}
	.st178{opacity:0.289;fill:#6C6C6C;enable-background:new    ;}
	.st179{opacity:0.2907;fill:#6B6B6B;enable-background:new    ;}
	.st180{opacity:0.2924;fill:#6A6A6A;enable-background:new    ;}
	.st181{opacity:0.294;fill:#696969;enable-background:new    ;}
	.st182{opacity:0.2957;fill:#686868;enable-background:new    ;}
	.st183{opacity:0.2973;fill:#676767;enable-background:new    ;}
	.st184{opacity:0.299;fill:#676767;enable-background:new    ;}
	.st185{opacity:0.3007;fill:#666666;enable-background:new    ;}
	.st186{opacity:0.3023;fill:#656565;enable-background:new    ;}
	.st187{opacity:0.304;fill:#646464;enable-background:new    ;}
	.st188{opacity:0.3056;fill:#636363;enable-background:new    ;}
	.st189{opacity:0.3073;fill:#626262;enable-background:new    ;}
	.st190{opacity:0.309;fill:#616161;enable-background:new    ;}
	.st191{opacity:0.3106;fill:#616161;enable-background:new    ;}
	.st192{opacity:0.3123;fill:#606060;enable-background:new    ;}
	.st193{opacity:0.314;fill:#5F5F5F;enable-background:new    ;}
	.st194{opacity:0.3156;fill:#5E5E5E;enable-background:new    ;}
	.st195{opacity:0.3173;fill:#5D5D5D;enable-background:new    ;}
	.st196{opacity:0.3189;fill:#5C5C5C;enable-background:new    ;}
	.st197{opacity:0.3206;fill:#5B5B5B;enable-background:new    ;}
	.st198{opacity:0.3223;fill:#5B5B5B;enable-background:new    ;}
	.st199{opacity:0.3239;fill:#5A5A5A;enable-background:new    ;}
	.st200{opacity:0.3256;fill:#595959;enable-background:new    ;}
	.st201{opacity:0.3272;fill:#585858;enable-background:new    ;}
	.st202{opacity:0.3289;fill:#575757;enable-background:new    ;}
	.st203{opacity:0.3306;fill:#565656;enable-background:new    ;}
	.st204{opacity:0.3322;fill:#565656;enable-background:new    ;}
	.st205{opacity:0.3339;fill:#555555;enable-background:new    ;}
	.st206{opacity:0.3355;fill:#545454;enable-background:new    ;}
	.st207{opacity:0.3372;fill:#535353;enable-background:new    ;}
	.st208{opacity:0.3389;fill:#525252;enable-background:new    ;}
	.st209{opacity:0.3405;fill:#515151;enable-background:new    ;}
	.st210{opacity:0.3422;fill:#505050;enable-background:new    ;}
	.st211{opacity:0.3439;fill:#505050;enable-background:new    ;}
	.st212{opacity:0.3455;fill:#4F4F4F;enable-background:new    ;}
	.st213{opacity:0.3472;fill:#4E4E4E;enable-background:new    ;}
	.st214{opacity:0.3488;fill:#4D4D4D;enable-background:new    ;}
	.st215{opacity:0.3505;fill:#4C4C4C;enable-background:new    ;}
	.st216{opacity:0.3522;fill:#4B4B4B;enable-background:new    ;}
	.st217{opacity:0.3538;fill:#4B4B4B;enable-background:new    ;}
	.st218{opacity:0.3555;fill:#4A4A4A;enable-background:new    ;}
	.st219{opacity:0.3571;fill:#494949;enable-background:new    ;}
	.st220{opacity:0.3588;fill:#484848;enable-background:new    ;}
	.st221{opacity:0.3605;fill:#474747;enable-background:new    ;}
	.st222{opacity:0.3621;fill:#464646;enable-background:new    ;}
	.st223{opacity:0.3638;fill:#454545;enable-background:new    ;}
	.st224{opacity:0.3654;fill:#454545;enable-background:new    ;}
	.st225{opacity:0.3671;fill:#444444;enable-background:new    ;}
	.st226{opacity:0.3688;fill:#434343;enable-background:new    ;}
	.st227{opacity:0.3704;fill:#424242;enable-background:new    ;}
	.st228{opacity:0.3721;fill:#414141;enable-background:new    ;}
	.st229{opacity:0.3738;fill:#404040;enable-background:new    ;}
	.st230{opacity:0.3754;fill:#404040;enable-background:new    ;}
	.st231{opacity:0.3771;fill:#3F3F3F;enable-background:new    ;}
	.st232{opacity:0.3787;fill:#3E3E3E;enable-background:new    ;}
	.st233{opacity:0.3804;fill:#3D3D3D;enable-background:new    ;}
	.st234{opacity:0.3821;fill:#3C3C3C;enable-background:new    ;}
	.st235{opacity:0.3837;fill:#3B3B3B;enable-background:new    ;}
	.st236{opacity:0.3854;fill:#3A3A3A;enable-background:new    ;}
	.st237{opacity:0.387;fill:#3A3A3A;enable-background:new    ;}
	.st238{opacity:0.3887;fill:#393939;enable-background:new    ;}
	.st239{opacity:0.3904;fill:#383838;enable-background:new    ;}
	.st240{opacity:0.392;fill:#373737;enable-background:new    ;}
	.st241{opacity:0.3937;fill:#363636;enable-background:new    ;}
	.st242{opacity:0.3953;fill:#353535;enable-background:new    ;}
	.st243{opacity:0.397;fill:#353535;enable-background:new    ;}
	.st244{opacity:0.3987;fill:#343434;enable-background:new    ;}
	.st245{opacity:0.4003;fill:#333333;enable-background:new    ;}
	.st246{opacity:0.402;fill:#323232;enable-background:new    ;}
	.st247{opacity:0.4037;fill:#313131;enable-background:new    ;}
	.st248{opacity:0.4053;fill:#303030;enable-background:new    ;}
	.st249{opacity:0.407;fill:#2F2F2F;enable-background:new    ;}
	.st250{opacity:0.4086;fill:#2F2F2F;enable-background:new    ;}
	.st251{opacity:0.4103;fill:#2E2E2E;enable-background:new    ;}
	.st252{opacity:0.412;fill:#2D2D2D;enable-background:new    ;}
	.st253{opacity:0.4136;fill:#2C2C2C;enable-background:new    ;}
	.st254{opacity:0.4153;fill:#2B2B2B;enable-background:new    ;}
	.st255{opacity:0.4169;fill:#2A2A2A;enable-background:new    ;}
	.st256{opacity:0.4186;fill:#2A2A2A;enable-background:new    ;}
	.st257{opacity:0.4203;fill:#292929;enable-background:new    ;}
	.st258{opacity:0.4219;fill:#282828;enable-background:new    ;}
	.st259{opacity:0.4236;fill:#272727;enable-background:new    ;}
	.st260{opacity:0.4252;fill:#262626;enable-background:new    ;}
	.st261{opacity:0.4269;fill:#252525;enable-background:new    ;}
	.st262{opacity:0.4286;fill:#242424;enable-background:new    ;}
	.st263{opacity:0.4302;fill:#242424;enable-background:new    ;}
	.st264{opacity:0.4319;fill:#232323;enable-background:new    ;}
	.st265{opacity:0.4336;fill:#222222;enable-background:new    ;}
	.st266{opacity:0.4352;fill:#212121;enable-background:new    ;}
	.st267{opacity:0.4369;fill:#202020;enable-background:new    ;}
	.st268{opacity:0.4385;fill:#1F1F1F;enable-background:new    ;}
	.st269{opacity:0.4402;fill:#1E1E1E;enable-background:new    ;}
	.st270{opacity:0.4419;fill:#1E1E1E;enable-background:new    ;}
	.st271{opacity:0.4435;fill:#1D1D1D;enable-background:new    ;}
	.st272{opacity:0.4452;fill:#1C1C1C;enable-background:new    ;}
	.st273{opacity:0.4468;fill:#1B1B1B;enable-background:new    ;}
	.st274{opacity:0.4485;fill:#1A1A1A;enable-background:new    ;}
	.st275{opacity:0.4502;fill:#191919;enable-background:new    ;}
	.st276{opacity:0.4518;fill:#191919;enable-background:new    ;}
	.st277{opacity:0.4535;fill:#181818;enable-background:new    ;}
	.st278{opacity:0.4551;fill:#171717;enable-background:new    ;}
	.st279{opacity:0.4568;fill:#161616;enable-background:new    ;}
	.st280{opacity:0.4585;fill:#151515;enable-background:new    ;}
	.st281{opacity:0.4601;fill:#141414;enable-background:new    ;}
	.st282{opacity:0.4618;fill:#131313;enable-background:new    ;}
	.st283{opacity:0.4635;fill:#131313;enable-background:new    ;}
	.st284{opacity:0.4651;fill:#121212;enable-background:new    ;}
	.st285{opacity:0.4668;fill:#111111;enable-background:new    ;}
	.st286{opacity:0.4684;fill:#101010;enable-background:new    ;}
	.st287{opacity:0.4701;fill:#0F0F0F;enable-background:new    ;}
	.st288{opacity:0.4718;fill:#0E0E0E;enable-background:new    ;}
	.st289{opacity:0.4734;fill:#0E0E0E;enable-background:new    ;}
	.st290{opacity:0.4751;fill:#0D0D0D;enable-background:new    ;}
	.st291{opacity:0.4767;fill:#0C0C0C;enable-background:new    ;}
	.st292{opacity:0.4784;fill:#0B0B0B;enable-background:new    ;}
	.st293{opacity:0.4801;fill:#0A0A0A;enable-background:new    ;}
	.st294{opacity:0.4817;fill:#090909;enable-background:new    ;}
	.st295{opacity:0.4834;fill:#080808;enable-background:new    ;}
	.st296{opacity:0.485;fill:#080808;enable-background:new    ;}
	.st297{opacity:0.4867;fill:#070707;enable-background:new    ;}
	.st298{opacity:0.4884;fill:#060606;enable-background:new    ;}
	.st299{opacity:0.49;fill:#050505;enable-background:new    ;}
	.st300{opacity:0.4917;fill:#040404;enable-background:new    ;}
	.st301{opacity:0.4934;fill:#030303;enable-background:new    ;}
	.st302{opacity:0.495;fill:#030303;enable-background:new    ;}
	.st303{opacity:0.4967;fill:#020202;enable-background:new    ;}
	.st304{opacity:0.4983;fill:#010101;enable-background:new    ;}
	.st305{opacity:0.5;enable-background:new    ;}
	.st306{fill:#EFE940;}
</style>
<g>
	<path class="st0" d="M29.8,19.5v-5.3c0-0.4,0-0.9,0.1-1.5h0c-0.1,0.4-0.2,0.6-0.2,0.7l-2.8,6.1h-0.4l-2.7-6.1
		c-0.1-0.2-0.1-0.4-0.2-0.8h0c0,0.2,0,0.7,0,1.5v5.3h-0.8v-7.9h1.1l2.5,5.6c0.2,0.5,0.3,0.8,0.4,0.9h0c0.1-0.1,0.2-0.5,0.4-1
		l2.5-5.5h1.1v7.9L29.8,19.5L29.8,19.5z"/>
	<path class="st0" d="M37.3,11.6l-2.6,5v2.9h-0.9v-2.9l-2.5-5h1l1.8,3.6c0,0,0.1,0.2,0.2,0.5h0c0-0.1,0.1-0.3,0.2-0.5l1.9-3.6
		L37.3,11.6L37.3,11.6z"/>
</g>
<g>
	<path class="st0" d="M47.3,15.2c0,2.8-1.7,4.3-3.8,4.3c-2.1,0-3.6-1.7-3.6-4.1c0-2.6,1.6-4.2,3.8-4.2
		C45.9,11.1,47.3,12.8,47.3,15.2z M41,15.3c0,1.7,0.9,3.3,2.6,3.3c1.7,0,2.6-1.5,2.6-3.4c0-1.6-0.8-3.3-2.6-3.3
		C41.9,12,41,13.6,41,15.3z"/>
	<path class="st0" d="M48.6,15.4c0-0.7,0-1.3,0-1.9h0.9l0,1h0c0.4-0.7,1.1-1.1,2.1-1.1c1.4,0,2.5,1.2,2.5,3c0,2.1-1.3,3.1-2.6,3.1
		c-0.8,0-1.4-0.3-1.8-0.9h0v3.2h-1V15.4z M49.7,17c0,0.2,0,0.3,0,0.4c0.2,0.7,0.8,1.2,1.6,1.2c1.1,0,1.8-0.9,1.8-2.2
		c0-1.2-0.6-2.2-1.7-2.2c-0.7,0-1.4,0.5-1.6,1.3c0,0.1-0.1,0.3-0.1,0.4V17z"/>
	<path class="st0" d="M56.1,16.6c0,1.4,0.9,2,2,2c0.8,0,1.2-0.1,1.6-0.3l0.2,0.8c-0.4,0.2-1,0.4-1.9,0.4c-1.8,0-2.9-1.2-2.9-2.9
		s1-3.1,2.7-3.1c1.9,0,2.4,1.7,2.4,2.7c0,0.2,0,0.4,0,0.5H56.1z M59.2,15.9c0-0.7-0.3-1.7-1.5-1.7c-1.1,0-1.5,1-1.6,1.7H59.2z"/>
	<path class="st0" d="M61.5,15.3c0-0.7,0-1.3,0-1.8h0.9l0,1.1h0c0.3-0.8,0.9-1.3,1.6-1.3c0.1,0,0.2,0,0.3,0v1c-0.1,0-0.2,0-0.4,0
		c-0.7,0-1.3,0.6-1.4,1.4c0,0.1,0,0.3,0,0.5v3.1h-1V15.3z"/>
	<path class="st0" d="M68.6,19.3l-0.1-0.7h0c-0.3,0.5-0.9,0.9-1.8,0.9c-1.2,0-1.8-0.8-1.8-1.7c0-1.4,1.2-2.2,3.5-2.2v-0.1
		c0-0.5-0.1-1.3-1.3-1.3c-0.5,0-1.1,0.2-1.5,0.4l-0.2-0.7c0.5-0.3,1.2-0.5,1.9-0.5c1.8,0,2.2,1.2,2.2,2.4v2.2c0,0.5,0,1,0.1,1.4
		H68.6z M68.4,16.4c-1.2,0-2.5,0.2-2.5,1.3c0,0.7,0.5,1,1,1c0.8,0,1.2-0.5,1.4-1c0-0.1,0.1-0.2,0.1-0.3V16.4z"/>
	<path class="st0" d="M72.4,11.9v1.7h1.5v0.8h-1.5v3.1c0,0.7,0.2,1.1,0.8,1.1c0.3,0,0.5,0,0.6-0.1l0,0.8c-0.2,0.1-0.5,0.1-0.9,0.1
		c-0.5,0-0.9-0.2-1.1-0.4c-0.3-0.3-0.4-0.8-0.4-1.5v-3.2h-0.9v-0.8h0.9v-1.4L72.4,11.9z"/>
	<path class="st0" d="M76.2,11.9c0,0.4-0.3,0.6-0.7,0.6c-0.4,0-0.6-0.3-0.6-0.6c0-0.4,0.3-0.7,0.7-0.7C76,11.2,76.2,11.5,76.2,11.9z
		 M75.1,19.3v-5.8h1.1v5.8H75.1z"/>
	<path class="st0" d="M83.1,16.4c0,2.1-1.5,3.1-2.9,3.1c-1.6,0-2.8-1.2-2.8-3c0-1.9,1.3-3.1,2.9-3.1C82,13.4,83.1,14.6,83.1,16.4z
		 M78.5,16.4c0,1.3,0.7,2.2,1.8,2.2c1,0,1.8-0.9,1.8-2.3c0-1-0.5-2.2-1.7-2.2C79,14.2,78.5,15.3,78.5,16.4z"/>
	<path class="st0" d="M84.5,15.1c0-0.6,0-1.1,0-1.6h0.9l0.1,1h0c0.3-0.6,1-1.1,1.9-1.1c0.8,0,2.1,0.5,2.1,2.5v3.5h-1.1V16
		c0-0.9-0.3-1.7-1.3-1.7c-0.7,0-1.2,0.5-1.4,1.1c0,0.1-0.1,0.3-0.1,0.5v3.5h-1.1V15.1z"/>
	<path class="st0" d="M91,18.3c0.3,0.2,0.9,0.4,1.4,0.4c0.8,0,1.1-0.4,1.1-0.9c0-0.5-0.3-0.8-1.1-1.1c-1-0.4-1.5-0.9-1.5-1.6
		c0-0.9,0.8-1.7,2-1.7c0.6,0,1.1,0.2,1.4,0.4L94,14.5c-0.2-0.1-0.6-0.3-1.2-0.3c-0.6,0-1,0.4-1,0.8c0,0.5,0.3,0.7,1.1,1
		c1,0.4,1.5,0.9,1.5,1.8c0,1-0.8,1.7-2.2,1.7c-0.6,0-1.2-0.2-1.6-0.4L91,18.3z"/>
</g>
<g>
	<g>
		<g>
			<path class="st1" d="M8.9,23.8c0,0-10.8-4.8-7.3-12c0,0,3.1-4.5,7.3,0V23.8z"/>
			<path class="st2" d="M8.9,23.8c0,0,10.8-4.8,7.3-12c0,0-3.1-4.5-7.3,0V23.8z"/>
		</g>
	</g>
	<g>
		<g class="st3">
			<polygon class="st4" points="20.8,13.3 19,11.5 11.5,19 8.5,16 6.7,17.8 11.4,22.5 11.5,22.4 11.6,22.4 			"/>
			<polygon class="st5" points="20.8,13.3 19,11.5 11.5,19 8.5,16 6.7,17.8 11.4,22.5 11.5,22.4 11.6,22.4 			"/>
			<polygon class="st6" points="20.8,13.3 19,11.5 11.4,19 8.5,16 6.7,17.8 11.4,22.5 11.5,22.4 11.5,22.4 			"/>
			<polygon class="st7" points="20.8,13.2 19,11.5 11.4,18.9 8.4,16 6.7,17.8 11.4,22.5 11.5,22.4 11.5,22.4 			"/>
			<polygon class="st8" points="20.8,13.2 19,11.5 11.4,18.9 8.4,16 6.7,17.8 11.4,22.5 11.5,22.4 11.5,22.4 			"/>
			<polygon class="st9" points="20.8,13.2 19,11.4 11.4,18.9 8.4,16 6.6,17.8 11.4,22.5 11.5,22.4 11.5,22.4 			"/>
			<polygon class="st10" points="20.7,13.2 19,11.4 11.4,18.9 8.4,16 6.6,17.8 11.4,22.5 11.5,22.4 11.5,22.4 			"/>
			<polygon class="st11" points="20.7,13.2 19,11.4 11.4,18.9 8.4,16 6.6,17.7 11.4,22.4 11.5,22.4 11.5,22.4 			"/>
			<polygon class="st12" points="20.7,13.2 18.9,11.4 11.4,18.9 8.4,15.9 6.6,17.7 11.4,22.4 11.5,22.3 11.5,22.4 			"/>
			<polygon class="st13" points="20.7,13.2 18.9,11.4 11.4,18.9 8.4,15.9 6.6,17.7 11.4,22.4 11.4,22.3 11.5,22.3 			"/>
			<polygon class="st14" points="20.7,13.2 18.9,11.4 11.4,18.9 8.4,15.9 6.6,17.7 11.3,22.4 11.4,22.3 11.5,22.3 			"/>
			<polygon class="st15" points="20.7,13.2 18.9,11.4 11.4,18.9 8.4,15.9 6.6,17.7 11.3,22.4 11.4,22.3 11.4,22.3 			"/>
			<polygon class="st16" points="20.7,13.1 18.9,11.4 11.3,18.9 8.4,15.9 6.6,17.7 11.3,22.4 11.4,22.3 11.4,22.3 			"/>
			<polygon class="st17" points="20.7,13.1 18.9,11.4 11.3,18.8 8.3,15.9 6.6,17.7 11.3,22.4 11.4,22.3 11.4,22.3 			"/>
			<polygon class="st18" points="20.7,13.1 18.9,11.3 11.3,18.8 8.3,15.9 6.6,17.7 11.3,22.4 11.4,22.3 11.4,22.3 			"/>
			<polygon class="st19" points="20.6,13.1 18.9,11.3 11.3,18.8 8.3,15.9 6.5,17.7 11.3,22.4 11.4,22.3 11.4,22.3 			"/>
			<polygon class="st20" points="20.6,13.1 18.9,11.3 11.3,18.8 8.3,15.9 6.5,17.6 11.3,22.3 11.4,22.2 11.4,22.3 			"/>
			<polygon class="st21" points="20.6,13.1 18.9,11.3 11.3,18.8 8.3,15.9 6.5,17.6 11.3,22.3 11.4,22.2 11.4,22.3 			"/>
			<polygon class="st22" points="20.6,13.1 18.8,11.3 11.3,18.8 8.3,15.8 6.5,17.6 11.3,22.3 11.3,22.2 11.4,22.2 			"/>
			<polygon class="st23" points="20.6,13.1 18.8,11.3 11.3,18.8 8.3,15.8 6.5,17.6 11.2,22.3 11.3,22.2 11.4,22.2 			"/>
			<polygon class="st24" points="20.6,13.1 18.8,11.3 11.3,18.8 8.3,15.8 6.5,17.6 11.2,22.3 11.3,22.2 11.3,22.2 			"/>
			<polygon class="st25" points="20.6,13 18.8,11.3 11.2,18.8 8.3,15.8 6.5,17.6 11.2,22.3 11.3,22.2 11.3,22.2 			"/>
			<polygon class="st26" points="20.6,13 18.8,11.3 11.2,18.7 8.2,15.8 6.5,17.6 11.2,22.3 11.3,22.2 11.3,22.2 			"/>
			<polygon class="st27" points="20.6,13 18.8,11.2 11.2,18.7 8.2,15.8 6.5,17.6 11.2,22.3 11.3,22.2 11.3,22.2 			"/>
			<polygon class="st28" points="20.6,13 18.8,11.2 11.2,18.7 8.2,15.8 6.4,17.6 11.2,22.3 11.3,22.2 11.3,22.2 			"/>
			<polygon class="st29" points="20.5,13 18.8,11.2 11.2,18.7 8.2,15.8 6.4,17.5 11.2,22.2 11.3,22.1 11.3,22.2 			"/>
			<polygon class="st30" points="20.5,13 18.8,11.2 11.2,18.7 8.2,15.8 6.4,17.5 11.2,22.2 11.3,22.1 11.3,22.2 			"/>
			<polygon class="st31" points="20.5,13 18.7,11.2 11.2,18.7 8.2,15.7 6.4,17.5 11.2,22.2 11.3,22.1 11.3,22.1 			"/>
			<polygon class="st32" points="20.5,13 18.7,11.2 11.2,18.7 8.2,15.7 6.4,17.5 11.1,22.2 11.2,22.1 11.3,22.1 			"/>
			<polygon class="st33" points="20.5,13 18.7,11.2 11.2,18.7 8.2,15.7 6.4,17.5 11.1,22.2 11.2,22.1 11.3,22.1 			"/>
			<polygon class="st34" points="20.5,12.9 18.7,11.2 11.1,18.7 8.2,15.7 6.4,17.5 11.1,22.2 11.2,22.1 11.2,22.1 			"/>
			<polygon class="st35" points="20.5,12.9 18.7,11.2 11.1,18.6 8.1,15.7 6.4,17.5 11.1,22.2 11.2,22.1 11.2,22.1 			"/>
			<polygon class="st36" points="20.5,12.9 18.7,11.1 11.1,18.6 8.1,15.7 6.4,17.5 11.1,22.2 11.2,22.1 11.2,22.1 			"/>
			<polygon class="st37" points="20.5,12.9 18.7,11.1 11.1,18.6 8.1,15.7 6.3,17.5 11.1,22.2 11.2,22.1 11.2,22.1 			"/>
			<polygon class="st38" points="20.4,12.9 18.7,11.1 11.1,18.6 8.1,15.7 6.3,17.4 11.1,22.1 11.2,22.1 11.2,22.1 			"/>
			<polygon class="st39" points="20.4,12.9 18.7,11.1 11.1,18.6 8.1,15.7 6.3,17.4 11.1,22.1 11.2,22 11.2,22.1 			"/>
			<polygon class="st40" points="20.4,12.9 18.6,11.1 11.1,18.6 8.1,15.6 6.3,17.4 11.1,22.1 11.2,22 11.2,22.1 			"/>
			<polygon class="st41" points="20.4,12.9 18.6,11.1 11.1,18.6 8.1,15.6 6.3,17.4 11,22.1 11.1,22 11.2,22 			"/>
			<polygon class="st42" points="20.4,12.9 18.6,11.1 11.1,18.6 8.1,15.6 6.3,17.4 11,22.1 11.1,22 11.2,22 			"/>
			<polygon class="st43" points="20.4,12.9 18.6,11.1 11,18.6 8.1,15.6 6.3,17.4 11,22.1 11.1,22 11.1,22 			"/>
			<polygon class="st44" points="20.4,12.8 18.6,11.1 11,18.5 8,15.6 6.3,17.4 11,22.1 11.1,22 11.1,22 			"/>
			<polygon class="st45" points="20.4,12.8 18.6,11.1 11,18.5 8,15.6 6.3,17.4 11,22.1 11.1,22 11.1,22 			"/>
			<polygon class="st46" points="20.4,12.8 18.6,11 11,18.5 8,15.6 6.2,17.4 11,22.1 11.1,22 11.1,22 			"/>
			<polygon class="st47" points="20.3,12.8 18.6,11 11,18.5 8,15.6 6.2,17.3 11,22 11.1,22 11.1,22 			"/>
			<polygon class="st48" points="20.3,12.8 18.6,11 11,18.5 8,15.6 6.2,17.3 11,22 11.1,21.9 11.1,22 			"/>
			<polygon class="st49" points="20.3,12.8 18.5,11 11,18.5 8,15.5 6.2,17.3 11,22 11.1,21.9 11.1,22 			"/>
			<polygon class="st50" points="20.3,12.8 18.5,11 11,18.5 8,15.5 6.2,17.3 11,22 11,21.9 11.1,21.9 			"/>
			<polygon class="st51" points="20.3,12.8 18.5,11 11,18.5 8,15.5 6.2,17.3 10.9,22 11,21.9 11.1,21.9 			"/>
			<polygon class="st52" points="20.3,12.8 18.5,11 10.9,18.5 8,15.5 6.2,17.3 10.9,22 11,21.9 11,21.9 			"/>
			<polygon class="st53" points="20.3,12.7 18.5,11 10.9,18.4 7.9,15.5 6.2,17.3 10.9,22 11,21.9 11,21.9 			"/>
			<polygon class="st54" points="20.3,12.7 18.5,11 10.9,18.4 7.9,15.5 6.2,17.3 10.9,22 11,21.9 11,21.9 			"/>
			<polygon class="st55" points="20.3,12.7 18.5,10.9 10.9,18.4 7.9,15.5 6.1,17.3 10.9,22 11,21.9 11,21.9 			"/>
			<polygon class="st56" points="20.2,12.7 18.5,10.9 10.9,18.4 7.9,15.5 6.1,17.2 10.9,21.9 11,21.9 11,21.9 			"/>
			<polygon class="st57" points="20.2,12.7 18.5,10.9 10.9,18.4 7.9,15.5 6.1,17.2 10.9,21.9 11,21.8 11,21.9 			"/>
			<polygon class="st58" points="20.2,12.7 18.4,10.9 10.9,18.4 7.9,15.4 6.1,17.2 10.9,21.9 11,21.8 11,21.9 			"/>
			<polygon class="st59" points="20.2,12.7 18.4,10.9 10.9,18.4 7.9,15.4 6.1,17.2 10.9,21.9 10.9,21.8 11,21.8 			"/>
			<polygon class="st60" points="20.2,12.7 18.4,10.9 10.9,18.4 7.9,15.4 6.1,17.2 10.8,21.9 10.9,21.8 11,21.8 			"/>
			<polygon class="st61" points="20.2,12.7 18.4,10.9 10.9,18.4 7.9,15.4 6.1,17.2 10.8,21.9 10.9,21.8 10.9,21.8 			"/>
			<polygon class="st62" points="20.2,12.6 18.4,10.9 10.8,18.3 7.9,15.4 6.1,17.2 10.8,21.9 10.9,21.8 10.9,21.8 			"/>
			<polygon class="st63" points="20.2,12.6 18.4,10.9 10.8,18.3 7.8,15.4 6.1,17.2 10.8,21.9 10.9,21.8 10.9,21.8 			"/>
			<polygon class="st64" points="20.2,12.6 18.4,10.8 10.8,18.3 7.8,15.4 6.1,17.2 10.8,21.9 10.9,21.8 10.9,21.8 			"/>
			<polygon class="st65" points="20.2,12.6 18.4,10.8 10.8,18.3 7.8,15.4 6,17.1 10.8,21.9 10.9,21.8 10.9,21.8 			"/>
			<polygon class="st66" points="20.1,12.6 18.4,10.8 10.8,18.3 7.8,15.4 6,17.1 10.8,21.8 10.9,21.7 10.9,21.8 			"/>
			<polygon class="st67" points="20.1,12.6 18.4,10.8 10.8,18.3 7.8,15.3 6,17.1 10.8,21.8 10.9,21.7 10.9,21.8 			"/>
			<polygon class="st68" points="20.1,12.6 18.3,10.8 10.8,18.3 7.8,15.3 6,17.1 10.8,21.8 10.9,21.7 10.9,21.7 			"/>
			<polygon class="st69" points="20.1,12.6 18.3,10.8 10.8,18.3 7.8,15.3 6,17.1 10.7,21.8 10.8,21.7 10.9,21.7 			"/>
			<polygon class="st70" points="20.1,12.6 18.3,10.8 10.8,18.3 7.8,15.3 6,17.1 10.7,21.8 10.8,21.7 10.9,21.7 			"/>
			<polygon class="st71" points="20.1,12.5 18.3,10.8 10.7,18.2 7.8,15.3 6,17.1 10.7,21.8 10.8,21.7 10.8,21.7 			"/>
			<polygon class="st72" points="20.1,12.5 18.3,10.8 10.7,18.2 7.7,15.3 6,17.1 10.7,21.8 10.8,21.7 10.8,21.7 			"/>
			<polygon class="st73" points="20.1,12.5 18.3,10.7 10.7,18.2 7.7,15.3 6,17.1 10.7,21.8 10.8,21.7 10.8,21.7 			"/>
			<polygon class="st74" points="20.1,12.5 18.3,10.7 10.7,18.2 7.7,15.3 5.9,17.1 10.7,21.8 10.8,21.7 10.8,21.7 			"/>
			<polygon class="st75" points="20,12.5 18.3,10.7 10.7,18.2 7.7,15.3 5.9,17 10.7,21.7 10.8,21.6 10.8,21.7 			"/>
			<polygon class="st76" points="20,12.5 18.3,10.7 10.7,18.2 7.7,15.2 5.9,17 10.7,21.7 10.8,21.6 10.8,21.7 			"/>
			<polygon class="st77" points="20,12.5 18.2,10.7 10.7,18.2 7.7,15.2 5.9,17 10.7,21.7 10.8,21.6 10.8,21.6 			"/>
			<polygon class="st78" points="20,12.5 18.2,10.7 10.7,18.2 7.7,15.2 5.9,17 10.6,21.7 10.7,21.6 10.8,21.6 			"/>
			<polygon class="st79" points="20,12.5 18.2,10.7 10.7,18.2 7.7,15.2 5.9,17 10.6,21.7 10.7,21.6 10.8,21.6 			"/>
			<polygon class="st80" points="20,12.4 18.2,10.7 10.6,18.1 7.7,15.2 5.9,17 10.6,21.7 10.7,21.6 10.7,21.6 			"/>
			<polygon class="st81" points="20,12.4 18.2,10.7 10.6,18.1 7.6,15.2 5.9,17 10.6,21.7 10.7,21.6 10.7,21.6 			"/>
			<polygon class="st82" points="20,12.4 18.2,10.6 10.6,18.1 7.6,15.2 5.9,17 10.6,21.7 10.7,21.6 10.7,21.6 			"/>
			<polygon class="st83" points="20,12.4 18.2,10.6 10.6,18.1 7.6,15.2 5.8,17 10.6,21.7 10.7,21.6 10.7,21.6 			"/>
			<polygon class="st84" points="19.9,12.4 18.2,10.6 10.6,18.1 7.6,15.2 5.8,16.9 10.6,21.6 10.7,21.5 10.7,21.6 			"/>
			<polygon class="st85" points="19.9,12.4 18.2,10.6 10.6,18.1 7.6,15.1 5.8,16.9 10.6,21.6 10.7,21.5 10.7,21.6 			"/>
			<polygon class="st86" points="19.9,12.4 18.1,10.6 10.6,18.1 7.6,15.1 5.8,16.9 10.6,21.6 10.7,21.5 10.7,21.5 			"/>
			<polygon class="st87" points="19.9,12.4 18.1,10.6 10.6,18.1 7.6,15.1 5.8,16.9 10.6,21.6 10.6,21.5 10.7,21.5 			"/>
			<polygon class="st88" points="19.9,12.4 18.1,10.6 10.6,18.1 7.6,15.1 5.8,16.9 10.5,21.6 10.6,21.5 10.7,21.5 			"/>
			<polygon class="st89" points="19.9,12.3 18.1,10.6 10.6,18 7.6,15.1 5.8,16.9 10.5,21.6 10.6,21.5 10.6,21.5 			"/>
			<polygon class="st90" points="19.9,12.3 18.1,10.6 10.5,18 7.5,15.1 5.8,16.9 10.5,21.6 10.6,21.5 10.6,21.5 			"/>
			<polygon class="st91" points="19.9,12.3 18.1,10.5 10.5,18 7.5,15.1 5.8,16.9 10.5,21.6 10.6,21.5 10.6,21.5 			"/>
			<polygon class="st92" points="19.9,12.3 18.1,10.5 10.5,18 7.5,15.1 5.7,16.9 10.5,21.6 10.6,21.5 10.6,21.5 			"/>
			<polygon class="st93" points="19.8,12.3 18.1,10.5 10.5,18 7.5,15.1 5.7,16.8 10.5,21.5 10.6,21.4 10.6,21.5 			"/>
			<polygon class="st94" points="19.8,12.3 18.1,10.5 10.5,18 7.5,15.1 5.7,16.8 10.5,21.5 10.6,21.4 10.6,21.5 			"/>
			<polygon class="st95" points="19.8,12.3 18,10.5 10.5,18 7.5,15 5.7,16.8 10.5,21.5 10.6,21.4 10.6,21.4 			"/>
			<polygon class="st96" points="19.8,12.3 18,10.5 10.5,18 7.5,15 5.7,16.8 10.5,21.5 10.5,21.4 10.6,21.4 			"/>
			<polygon class="st97" points="19.8,12.3 18,10.5 10.5,18 7.5,15 5.7,16.8 10.4,21.5 10.5,21.4 10.6,21.4 			"/>
			<polygon class="st98" points="19.8,12.2 18,10.5 10.5,18 7.5,15 5.7,16.8 10.4,21.5 10.5,21.4 10.5,21.4 			"/>
			<polygon class="st99" points="19.8,12.2 18,10.5 10.4,17.9 7.5,15 5.7,16.8 10.4,21.5 10.5,21.4 10.5,21.4 			"/>
			<polygon class="st100" points="19.8,12.2 18,10.4 10.4,17.9 7.4,15 5.7,16.8 10.4,21.5 10.5,21.4 10.5,21.4 			"/>
			<polygon class="st101" points="19.8,12.2 18,10.4 10.4,17.9 7.4,15 5.7,16.8 10.4,21.5 10.5,21.4 10.5,21.4 			"/>
			<polygon class="st102" points="19.8,12.2 18,10.4 10.4,17.9 7.4,15 5.6,16.7 10.4,21.4 10.5,21.4 10.5,21.4 			"/>
			<polygon class="st103" points="19.7,12.2 18,10.4 10.4,17.9 7.4,15 5.6,16.7 10.4,21.4 10.5,21.3 10.5,21.4 			"/>
			<polygon class="st104" points="19.7,12.2 18,10.4 10.4,17.9 7.4,14.9 5.6,16.7 10.4,21.4 10.5,21.3 10.5,21.4 			"/>
			<polygon class="st105" points="19.7,12.2 17.9,10.4 10.4,17.9 7.4,14.9 5.6,16.7 10.4,21.4 10.4,21.3 10.5,21.3 			"/>
			<polygon class="st106" points="19.7,12.2 17.9,10.4 10.4,17.9 7.4,14.9 5.6,16.7 10.3,21.4 10.4,21.3 10.5,21.3 			"/>
			<polygon class="st107" points="19.7,12.1 17.9,10.4 10.4,17.9 7.4,14.9 5.6,16.7 10.3,21.4 10.4,21.3 10.4,21.3 			"/>
			<polygon class="st108" points="19.7,12.1 17.9,10.4 10.3,17.8 7.4,14.9 5.6,16.7 10.3,21.4 10.4,21.3 10.4,21.3 			"/>
			<polygon class="st109" points="19.7,12.1 17.9,10.3 10.3,17.8 7.3,14.9 5.6,16.7 10.3,21.4 10.4,21.3 10.4,21.3 			"/>
			<polygon class="st110" points="19.7,12.1 17.9,10.3 10.3,17.8 7.3,14.9 5.6,16.7 10.3,21.4 10.4,21.3 10.4,21.3 			"/>
			<polygon class="st111" points="19.7,12.1 17.9,10.3 10.3,17.8 7.3,14.9 5.5,16.6 10.3,21.3 10.4,21.3 10.4,21.3 			"/>
			<polygon class="st112" points="19.6,12.1 17.9,10.3 10.3,17.8 7.3,14.9 5.5,16.6 10.3,21.3 10.4,21.2 10.4,21.3 			"/>
			<polygon class="st113" points="19.6,12.1 17.9,10.3 10.3,17.8 7.3,14.8 5.5,16.6 10.3,21.3 10.4,21.2 10.4,21.3 			"/>
			<polygon class="st114" points="19.6,12.1 17.8,10.3 10.3,17.8 7.3,14.8 5.5,16.6 10.3,21.3 10.4,21.2 10.4,21.2 			"/>
			<polygon class="st115" points="19.6,12.1 17.8,10.3 10.3,17.8 7.3,14.8 5.5,16.6 10.2,21.3 10.3,21.2 10.4,21.2 			"/>
			<polygon class="st116" points="19.6,12.1 17.8,10.3 10.3,17.8 7.3,14.8 5.5,16.6 10.2,21.3 10.3,21.2 10.4,21.2 			"/>
			<polygon class="st117" points="19.6,12 17.8,10.3 10.2,17.7 7.3,14.8 5.5,16.6 10.2,21.3 10.3,21.2 10.3,21.2 			"/>
			<polygon class="st118" points="19.6,12 17.8,10.3 10.2,17.7 7.2,14.8 5.5,16.6 10.2,21.3 10.3,21.2 10.3,21.2 			"/>
			<polygon class="st119" points="19.6,12 17.8,10.2 10.2,17.7 7.2,14.8 5.5,16.6 10.2,21.3 10.3,21.2 10.3,21.2 			"/>
			<polygon class="st120" points="19.6,12 17.8,10.2 10.2,17.7 7.2,14.8 5.4,16.5 10.2,21.2 10.3,21.2 10.3,21.2 			"/>
			<polygon class="st121" points="19.5,12 17.8,10.2 10.2,17.7 7.2,14.8 5.4,16.5 10.2,21.2 10.3,21.1 10.3,21.2 			"/>
			<polygon class="st122" points="19.5,12 17.8,10.2 10.2,17.7 7.2,14.7 5.4,16.5 10.2,21.2 10.3,21.1 10.3,21.2 			"/>
			<polygon class="st123" points="19.5,12 17.7,10.2 10.2,17.7 7.2,14.7 5.4,16.5 10.2,21.2 10.3,21.1 10.3,21.1 			"/>
			<polygon class="st124" points="19.5,12 17.7,10.2 10.2,17.7 7.2,14.7 5.4,16.5 10.1,21.2 10.2,21.1 10.3,21.1 			"/>
			<polygon class="st125" points="19.5,12 17.7,10.2 10.2,17.7 7.2,14.7 5.4,16.5 10.1,21.2 10.2,21.1 10.3,21.1 			"/>
			<polygon class="st126" points="19.5,11.9 17.7,10.2 10.1,17.6 7.2,14.7 5.4,16.5 10.1,21.2 10.2,21.1 10.2,21.1 			"/>
			<polygon class="st127" points="19.5,11.9 17.7,10.2 10.1,17.6 7.1,14.7 5.4,16.5 10.1,21.2 10.2,21.1 10.2,21.1 			"/>
			<polygon class="st128" points="19.5,11.9 17.7,10.1 10.1,17.6 7.1,14.7 5.4,16.5 10.1,21.2 10.2,21.1 10.2,21.1 			"/>
			<polygon class="st129" points="19.5,11.9 17.7,10.1 10.1,17.6 7.1,14.7 5.3,16.4 10.1,21.1 10.2,21.1 10.2,21.1 			"/>
			<polygon class="st130" points="19.4,11.9 17.7,10.1 10.1,17.6 7.1,14.7 5.3,16.4 10.1,21.1 10.2,21 10.2,21.1 			"/>
			<polygon class="st131" points="19.4,11.9 17.7,10.1 10.1,17.6 7.1,14.6 5.3,16.4 10.1,21.1 10.2,21 10.2,21.1 			"/>
			<polygon class="st132" points="19.4,11.9 17.6,10.1 10.1,17.6 7.1,14.6 5.3,16.4 10.1,21.1 10.2,21 10.2,21 			"/>
			<polygon class="st133" points="19.4,11.9 17.6,10.1 10.1,17.6 7.1,14.6 5.3,16.4 10.1,21.1 10.1,21 10.2,21 			"/>
			<polygon class="st134" points="19.4,11.9 17.6,10.1 10.1,17.6 7.1,14.6 5.3,16.4 10,21.1 10.1,21 10.2,21 			"/>
			<polygon class="st135" points="19.4,11.8 17.6,10.1 10.1,17.5 7.1,14.6 5.3,16.4 10,21.1 10.1,21 10.1,21 			"/>
			<polygon class="st136" points="19.4,11.8 17.6,10.1 10,17.5 7.1,14.6 5.3,16.4 10,21.1 10.1,21 10.1,21 			"/>
			<polygon class="st137" points="19.4,11.8 17.6,10 10,17.5 7,14.6 5.3,16.4 10,21.1 10.1,21 10.1,21 			"/>
			<polygon class="st138" points="19.4,11.8 17.6,10 10,17.5 7,14.6 5.3,16.3 10,21.1 10.1,21 10.1,21 			"/>
			<polygon class="st139" points="19.4,11.8 17.6,10 10,17.5 7,14.6 5.2,16.3 10,21 10.1,20.9 10.1,21 			"/>
			<polygon class="st140" points="19.3,11.8 17.6,10 10,17.5 7,14.5 5.2,16.3 10,21 10.1,20.9 10.1,21 			"/>
			<polygon class="st141" points="19.3,11.8 17.5,10 10,17.5 7,14.5 5.2,16.3 10,21 10.1,20.9 10.1,20.9 			"/>
			<polygon class="st142" points="19.3,11.8 17.5,10 10,17.5 7,14.5 5.2,16.3 10,21 10,20.9 10.1,20.9 			"/>
			<polygon class="st143" points="19.3,11.8 17.5,10 10,17.5 7,14.5 5.2,16.3 9.9,21 10,20.9 10.1,20.9 			"/>
			<polygon class="st144" points="19.3,11.7 17.5,10 10,17.4 7,14.5 5.2,16.3 9.9,21 10,20.9 10,20.9 			"/>
			<polygon class="st145" points="19.3,11.7 17.5,10 9.9,17.4 7,14.5 5.2,16.3 9.9,21 10,20.9 10,20.9 			"/>
			<polygon class="st146" points="19.3,11.7 17.5,9.9 9.9,17.4 6.9,14.5 5.2,16.3 9.9,21 10,20.9 10,20.9 			"/>
			<polygon class="st147" points="19.3,11.7 17.5,9.9 9.9,17.4 6.9,14.5 5.2,16.3 9.9,21 10,20.9 10,20.9 			"/>
			<polygon class="st148" points="19.3,11.7 17.5,9.9 9.9,17.4 6.9,14.5 5.1,16.2 9.9,20.9 10,20.8 10,20.9 			"/>
			<polygon class="st149" points="19.2,11.7 17.5,9.9 9.9,17.4 6.9,14.4 5.1,16.2 9.9,20.9 10,20.8 10,20.9 			"/>
			<polygon class="st150" points="19.2,11.7 17.5,9.9 9.9,17.4 6.9,14.4 5.1,16.2 9.9,20.9 10,20.8 10,20.8 			"/>
			<polygon class="st151" points="19.2,11.7 17.4,9.9 9.9,17.4 6.9,14.4 5.1,16.2 9.9,20.9 10,20.8 10,20.8 			"/>
			<polygon class="st152" points="19.2,11.7 17.4,9.9 9.9,17.4 6.9,14.4 5.1,16.2 9.8,20.9 9.9,20.8 10,20.8 			"/>
			<polygon class="st153" points="19.2,11.6 17.4,9.9 9.9,17.4 6.9,14.4 5.1,16.2 9.8,20.9 9.9,20.8 10,20.8 			"/>
			<polygon class="st154" points="19.2,11.6 17.4,9.9 9.8,17.3 6.9,14.4 5.1,16.2 9.8,20.9 9.9,20.8 9.9,20.8 			"/>
			<polygon class="st155" points="19.2,11.6 17.4,9.8 9.8,17.3 6.8,14.4 5.1,16.2 9.8,20.9 9.9,20.8 9.9,20.8 			"/>
			<polygon class="st156" points="19.2,11.6 17.4,9.8 9.8,17.3 6.8,14.4 5.1,16.2 9.8,20.9 9.9,20.8 9.9,20.8 			"/>
			<polygon class="st157" points="19.2,11.6 17.4,9.8 9.8,17.3 6.8,14.4 5,16.1 9.8,20.8 9.9,20.7 9.9,20.8 			"/>
			<polygon class="st158" points="19.1,11.6 17.4,9.8 9.8,17.3 6.8,14.4 5,16.1 9.8,20.8 9.9,20.7 9.9,20.8 			"/>
			<polygon class="st159" points="19.1,11.6 17.4,9.8 9.8,17.3 6.8,14.3 5,16.1 9.8,20.8 9.9,20.7 9.9,20.7 			"/>
			<polygon class="st160" points="19.1,11.6 17.3,9.8 9.8,17.3 6.8,14.3 5,16.1 9.8,20.8 9.9,20.7 9.9,20.7 			"/>
			<polygon class="st161" points="19.1,11.6 17.3,9.8 9.8,17.3 6.8,14.3 5,16.1 9.7,20.8 9.8,20.7 9.9,20.7 			"/>
			<polygon class="st162" points="19.1,11.5 17.3,9.8 9.8,17.3 6.8,14.3 5,16.1 9.7,20.8 9.8,20.7 9.9,20.7 			"/>
			<polygon class="st163" points="19.1,11.5 17.3,9.8 9.7,17.2 6.8,14.3 5,16.1 9.7,20.8 9.8,20.7 9.8,20.7 			"/>
			<polygon class="st164" points="19.1,11.5 17.3,9.7 9.7,17.2 6.7,14.3 5,16.1 9.7,20.8 9.8,20.7 9.8,20.7 			"/>
			<polygon class="st165" points="19.1,11.5 17.3,9.7 9.7,17.2 6.7,14.3 5,16.1 9.7,20.8 9.8,20.7 9.8,20.7 			"/>
			<polygon class="st166" points="19.1,11.5 17.3,9.7 9.7,17.2 6.7,14.3 4.9,16 9.7,20.7 9.8,20.6 9.8,20.7 			"/>
			<polygon class="st167" points="19,11.5 17.3,9.7 9.7,17.2 6.7,14.3 4.9,16 9.7,20.7 9.8,20.6 9.8,20.7 			"/>
			<polygon class="st168" points="19,11.5 17.3,9.7 9.7,17.2 6.7,14.2 4.9,16 9.7,20.7 9.8,20.6 9.8,20.6 			"/>
			<polygon class="st169" points="19,11.5 17.2,9.7 9.7,17.2 6.7,14.2 4.9,16 9.7,20.7 9.8,20.6 9.8,20.6 			"/>
			<polygon class="st170" points="19,11.5 17.2,9.7 9.7,17.2 6.7,14.2 4.9,16 9.7,20.7 9.7,20.6 9.8,20.6 			"/>
			<polygon class="st171" points="19,11.4 17.2,9.7 9.7,17.1 6.7,14.2 4.9,16 9.6,20.7 9.7,20.6 9.8,20.6 			"/>
			<polygon class="st172" points="19,11.4 17.2,9.7 9.6,17.1 6.7,14.2 4.9,16 9.6,20.7 9.7,20.6 9.7,20.6 			"/>
			<polygon class="st173" points="19,11.4 17.2,9.6 9.6,17.1 6.7,14.2 4.9,16 9.6,20.7 9.7,20.6 9.7,20.6 			"/>
			<polygon class="st174" points="19,11.4 17.2,9.6 9.6,17.1 6.6,14.2 4.9,16 9.6,20.7 9.7,20.6 9.7,20.6 			"/>
			<polygon class="st175" points="19,11.4 17.2,9.6 9.6,17.1 6.6,14.2 4.8,15.9 9.6,20.6 9.7,20.6 9.7,20.6 			"/>
			<polygon class="st176" points="18.9,11.4 17.2,9.6 9.6,17.1 6.6,14.2 4.8,15.9 9.6,20.6 9.7,20.5 9.7,20.6 			"/>
			<polygon class="st177" points="18.9,11.4 17.2,9.6 9.6,17.1 6.6,14.1 4.8,15.9 9.6,20.6 9.7,20.5 9.7,20.5 			"/>
			<polygon class="st178" points="18.9,11.4 17.1,9.6 9.6,17.1 6.6,14.1 4.8,15.9 9.6,20.6 9.7,20.5 9.7,20.5 			"/>
			<polygon class="st179" points="18.9,11.4 17.1,9.6 9.6,17.1 6.6,14.1 4.8,15.9 9.6,20.6 9.6,20.5 9.7,20.5 			"/>
			<polygon class="st180" points="18.9,11.3 17.1,9.6 9.6,17.1 6.6,14.1 4.8,15.9 9.5,20.6 9.6,20.5 9.7,20.5 			"/>
			<polygon class="st181" points="18.9,11.3 17.1,9.6 9.6,17 6.6,14.1 4.8,15.9 9.5,20.6 9.6,20.5 9.6,20.5 			"/>
			<polygon class="st182" points="18.9,11.3 17.1,9.5 9.5,17 6.6,14.1 4.8,15.9 9.5,20.6 9.6,20.5 9.6,20.5 			"/>
			<polygon class="st183" points="18.9,11.3 17.1,9.5 9.5,17 6.5,14.1 4.8,15.9 9.5,20.6 9.6,20.5 9.6,20.5 			"/>
			<polygon class="st184" points="18.9,11.3 17.1,9.5 9.5,17 6.5,14.1 4.8,15.8 9.5,20.5 9.6,20.5 9.6,20.5 			"/>
			<polygon class="st185" points="18.9,11.3 17.1,9.5 9.5,17 6.5,14.1 4.7,15.8 9.5,20.5 9.6,20.4 9.6,20.5 			"/>
			<polygon class="st186" points="18.8,11.3 17.1,9.5 9.5,17 6.5,14 4.7,15.8 9.5,20.5 9.6,20.4 9.6,20.5 			"/>
			<polygon class="st187" points="18.8,11.3 17.1,9.5 9.5,17 6.5,14 4.7,15.8 9.5,20.5 9.6,20.4 9.6,20.4 			"/>
			<polygon class="st188" points="18.8,11.3 17,9.5 9.5,17 6.5,14 4.7,15.8 9.5,20.5 9.6,20.4 9.6,20.4 			"/>
			<polygon class="st189" points="18.8,11.3 17,9.5 9.5,17 6.5,14 4.7,15.8 9.4,20.5 9.5,20.4 9.6,20.4 			"/>
			<polygon class="st190" points="18.8,11.2 17,9.5 9.5,16.9 6.5,14 4.7,15.8 9.4,20.5 9.5,20.4 9.6,20.4 			"/>
			<polygon class="st191" points="18.8,11.2 17,9.4 9.4,16.9 6.5,14 4.7,15.8 9.4,20.5 9.5,20.4 9.5,20.4 			"/>
			<polygon class="st192" points="18.8,11.2 17,9.4 9.4,16.9 6.4,14 4.7,15.8 9.4,20.5 9.5,20.4 9.5,20.4 			"/>
			<polygon class="st193" points="18.8,11.2 17,9.4 9.4,16.9 6.4,14 4.7,15.7 9.4,20.4 9.5,20.4 9.5,20.4 			"/>
			<polygon class="st194" points="18.8,11.2 17,9.4 9.4,16.9 6.4,14 4.6,15.7 9.4,20.4 9.5,20.3 9.5,20.4 			"/>
			<polygon class="st195" points="18.7,11.2 17,9.4 9.4,16.9 6.4,13.9 4.6,15.7 9.4,20.4 9.5,20.3 9.5,20.4 			"/>
			<polygon class="st196" points="18.7,11.2 17,9.4 9.4,16.9 6.4,13.9 4.6,15.7 9.4,20.4 9.5,20.3 9.5,20.3 			"/>
			<polygon class="st197" points="18.7,11.2 16.9,9.4 9.4,16.9 6.4,13.9 4.6,15.7 9.4,20.4 9.5,20.3 9.5,20.3 			"/>
			<polygon class="st198" points="18.7,11.2 16.9,9.4 9.4,16.9 6.4,13.9 4.6,15.7 9.3,20.4 9.4,20.3 9.5,20.3 			"/>
			<polygon class="st199" points="18.7,11.1 16.9,9.4 9.4,16.8 6.4,13.9 4.6,15.7 9.3,20.4 9.4,20.3 9.5,20.3 			"/>
			<polygon class="st200" points="18.7,11.1 16.9,9.4 9.3,16.8 6.4,13.9 4.6,15.7 9.3,20.4 9.4,20.3 9.4,20.3 			"/>
			<polygon class="st201" points="18.7,11.1 16.9,9.3 9.3,16.8 6.3,13.9 4.6,15.7 9.3,20.4 9.4,20.3 9.4,20.3 			"/>
			<polygon class="st202" points="18.7,11.1 16.9,9.3 9.3,16.8 6.3,13.9 4.6,15.6 9.3,20.4 9.4,20.3 9.4,20.3 			"/>
			<polygon class="st203" points="18.7,11.1 16.9,9.3 9.3,16.8 6.3,13.9 4.5,15.6 9.3,20.3 9.4,20.2 9.4,20.3 			"/>
			<polygon class="st204" points="18.6,11.1 16.9,9.3 9.3,16.8 6.3,13.8 4.5,15.6 9.3,20.3 9.4,20.2 9.4,20.3 			"/>
			<polygon class="st205" points="18.6,11.1 16.9,9.3 9.3,16.8 6.3,13.8 4.5,15.6 9.3,20.3 9.4,20.2 9.4,20.2 			"/>
			<polygon class="st206" points="18.6,11.1 16.8,9.3 9.3,16.8 6.3,13.8 4.5,15.6 9.3,20.3 9.4,20.2 9.4,20.2 			"/>
			<polygon class="st207" points="18.6,11.1 16.8,9.3 9.3,16.8 6.3,13.8 4.5,15.6 9.3,20.3 9.3,20.2 9.4,20.2 			"/>
			<polygon class="st208" points="18.6,11 16.8,9.3 9.3,16.7 6.3,13.8 4.5,15.6 9.2,20.3 9.3,20.2 9.4,20.2 			"/>
			<polygon class="st209" points="18.6,11 16.8,9.3 9.2,16.7 6.3,13.8 4.5,15.6 9.2,20.3 9.3,20.2 9.3,20.2 			"/>
			<polygon class="st210" points="18.6,11 16.8,9.2 9.2,16.7 6.2,13.8 4.5,15.6 9.2,20.3 9.3,20.2 9.3,20.2 			"/>
			<polygon class="st211" points="18.6,11 16.8,9.2 9.2,16.7 6.2,13.8 4.5,15.5 9.2,20.3 9.3,20.2 9.3,20.2 			"/>
			<polygon class="st212" points="18.6,11 16.8,9.2 9.2,16.7 6.2,13.8 4.4,15.5 9.2,20.2 9.3,20.1 9.3,20.2 			"/>
			<polygon class="st213" points="18.5,11 16.8,9.2 9.2,16.7 6.2,13.7 4.4,15.5 9.2,20.2 9.3,20.1 9.3,20.2 			"/>
			<polygon class="st214" points="18.5,11 16.8,9.2 9.2,16.7 6.2,13.7 4.4,15.5 9.2,20.2 9.3,20.1 9.3,20.1 			"/>
			<polygon class="st215" points="18.5,11 16.7,9.2 9.2,16.7 6.2,13.7 4.4,15.5 9.2,20.2 9.3,20.1 9.3,20.1 			"/>
			<polygon class="st216" points="18.5,11 16.7,9.2 9.2,16.7 6.2,13.7 4.4,15.5 9.2,20.2 9.2,20.1 9.3,20.1 			"/>
			<polygon class="st217" points="18.5,10.9 16.7,9.2 9.2,16.6 6.2,13.7 4.4,15.5 9.1,20.2 9.2,20.1 9.3,20.1 			"/>
			<polygon class="st218" points="18.5,10.9 16.7,9.2 9.2,16.6 6.2,13.7 4.4,15.5 9.1,20.2 9.2,20.1 9.2,20.1 			"/>
			<polygon class="st219" points="18.5,10.9 16.7,9.1 9.1,16.6 6.2,13.7 4.4,15.5 9.1,20.2 9.2,20.1 9.2,20.1 			"/>
			<polygon class="st220" points="18.5,10.9 16.7,9.1 9.1,16.6 6.1,13.7 4.4,15.4 9.1,20.2 9.2,20.1 9.2,20.1 			"/>
			<polygon class="st221" points="18.5,10.9 16.7,9.1 9.1,16.6 6.1,13.7 4.4,15.4 9.1,20.1 9.2,20 9.2,20.1 			"/>
			<polygon class="st222" points="18.5,10.9 16.7,9.1 9.1,16.6 6.1,13.6 4.3,15.4 9.1,20.1 9.2,20 9.2,20.1 			"/>
			<polygon class="st223" points="18.4,10.9 16.7,9.1 9.1,16.6 6.1,13.6 4.3,15.4 9.1,20.1 9.2,20 9.2,20 			"/>
			<polygon class="st224" points="18.4,10.9 16.6,9.1 9.1,16.6 6.1,13.6 4.3,15.4 9.1,20.1 9.2,20 9.2,20 			"/>
			<polygon class="st225" points="18.4,10.9 16.6,9.1 9.1,16.6 6.1,13.6 4.3,15.4 9.1,20.1 9.1,20 9.2,20 			"/>
			<polygon class="st226" points="18.4,10.8 16.6,9.1 9.1,16.5 6.1,13.6 4.3,15.4 9,20.1 9.1,20 9.2,20 			"/>
			<polygon class="st227" points="18.4,10.8 16.6,9.1 9.1,16.5 6.1,13.6 4.3,15.4 9,20.1 9.1,20 9.1,20 			"/>
			<polygon class="st228" points="18.4,10.8 16.6,9 9,16.5 6.1,13.6 4.3,15.4 9,20.1 9.1,20 9.1,20 			"/>
			<polygon class="st229" points="18.4,10.8 16.6,9 9,16.5 6,13.6 4.3,15.4 9,20.1 9.1,20 9.1,20 			"/>
			<polygon class="st230" points="18.4,10.8 16.6,9 9,16.5 6,13.6 4.3,15.3 9,20 9.1,19.9 9.1,20 			"/>
			<polygon class="st231" points="18.4,10.8 16.6,9 9,16.5 6,13.6 4.2,15.3 9,20 9.1,19.9 9.1,20 			"/>
			<polygon class="st232" points="18.3,10.8 16.6,9 9,16.5 6,13.5 4.2,15.3 9,20 9.1,19.9 9.1,19.9 			"/>
			<polygon class="st233" points="18.3,10.8 16.6,9 9,16.5 6,13.5 4.2,15.3 9,20 9.1,19.9 9.1,19.9 			"/>
			<polygon class="st234" points="18.3,10.8 16.5,9 9,16.5 6,13.5 4.2,15.3 9,20 9.1,19.9 9.1,19.9 			"/>
			<polygon class="st235" points="18.3,10.7 16.5,9 9,16.5 6,13.5 4.2,15.3 8.9,20 9,19.9 9.1,19.9 			"/>
			<polygon class="st236" points="18.3,10.7 16.5,9 9,16.4 6,13.5 4.2,15.3 8.9,20 9,19.9 9.1,19.9 			"/>
			<polygon class="st237" points="18.3,10.7 16.5,8.9 8.9,16.4 6,13.5 4.2,15.3 8.9,20 9,19.9 9,19.9 			"/>
			<polygon class="st238" points="18.3,10.7 16.5,8.9 8.9,16.4 5.9,13.5 4.2,15.3 8.9,20 9,19.9 9,19.9 			"/>
			<polygon class="st239" points="18.3,10.7 16.5,8.9 8.9,16.4 5.9,13.5 4.2,15.2 8.9,19.9 9,19.9 9,19.9 			"/>
			<polygon class="st240" points="18.3,10.7 16.5,8.9 8.9,16.4 5.9,13.5 4.1,15.2 8.9,19.9 9,19.8 9,19.9 			"/>
			<polygon class="st241" points="18.2,10.7 16.5,8.9 8.9,16.4 5.9,13.4 4.1,15.2 8.9,19.9 9,19.8 9,19.9 			"/>
			<polygon class="st242" points="18.2,10.7 16.5,8.9 8.9,16.4 5.9,13.4 4.1,15.2 8.9,19.9 9,19.8 9,19.8 			"/>
			<polygon class="st243" points="18.2,10.7 16.4,8.9 8.9,16.4 5.9,13.4 4.1,15.2 8.9,19.9 9,19.8 9,19.8 			"/>
			<polygon class="st244" points="18.2,10.6 16.4,8.9 8.9,16.4 5.9,13.4 4.1,15.2 8.8,19.9 8.9,19.8 9,19.8 			"/>
			<polygon class="st245" points="18.2,10.6 16.4,8.9 8.9,16.3 5.9,13.4 4.1,15.2 8.8,19.9 8.9,19.8 9,19.8 			"/>
			<polygon class="st246" points="18.2,10.6 16.4,8.8 8.8,16.3 5.9,13.4 4.1,15.2 8.8,19.9 8.9,19.8 8.9,19.8 			"/>
			<polygon class="st247" points="18.2,10.6 16.4,8.8 8.8,16.3 5.8,13.4 4.1,15.2 8.8,19.9 8.9,19.8 8.9,19.8 			"/>
			<polygon class="st248" points="18.2,10.6 16.4,8.8 8.8,16.3 5.8,13.4 4.1,15.1 8.8,19.8 8.9,19.8 8.9,19.8 			"/>
			<polygon class="st249" points="18.2,10.6 16.4,8.8 8.8,16.3 5.8,13.4 4,15.1 8.8,19.8 8.9,19.7 8.9,19.8 			"/>
			<polygon class="st250" points="18.1,10.6 16.4,8.8 8.8,16.3 5.8,13.3 4,15.1 8.8,19.8 8.9,19.7 8.9,19.8 			"/>
			<polygon class="st251" points="18.1,10.6 16.4,8.8 8.8,16.3 5.8,13.3 4,15.1 8.8,19.8 8.9,19.7 8.9,19.7 			"/>
			<polygon class="st252" points="18.1,10.6 16.3,8.8 8.8,16.3 5.8,13.3 4,15.1 8.8,19.8 8.9,19.7 8.9,19.7 			"/>
			<polygon class="st253" points="18.1,10.5 16.3,8.8 8.8,16.3 5.8,13.3 4,15.1 8.8,19.8 8.8,19.7 8.9,19.7 			"/>
			<polygon class="st254" points="18.1,10.5 16.3,8.8 8.8,16.2 5.8,13.3 4,15.1 8.7,19.8 8.8,19.7 8.9,19.7 			"/>
			<polygon class="st255" points="18.1,10.5 16.3,8.7 8.8,16.2 5.8,13.3 4,15.1 8.7,19.8 8.8,19.7 8.8,19.7 			"/>
			<polygon class="st256" points="18.1,10.5 16.3,8.7 8.7,16.2 5.8,13.3 4,15.1 8.7,19.8 8.8,19.7 8.8,19.7 			"/>
			<polygon class="st257" points="18.1,10.5 16.3,8.7 8.7,16.2 5.7,13.3 4,15 8.7,19.7 8.8,19.7 8.8,19.7 			"/>
			<polygon class="st258" points="18.1,10.5 16.3,8.7 8.7,16.2 5.7,13.3 4,15 8.7,19.7 8.8,19.6 8.8,19.7 			"/>
			<polygon class="st259" points="18,10.5 16.3,8.7 8.7,16.2 5.7,13.2 3.9,15 8.7,19.7 8.8,19.6 8.8,19.6 			"/>
			<polygon class="st260" points="18,10.5 16.3,8.7 8.7,16.2 5.7,13.2 3.9,15 8.7,19.7 8.8,19.6 8.8,19.6 			"/>
			<polygon class="st261" points="18,10.5 16.2,8.7 8.7,16.2 5.7,13.2 3.9,15 8.7,19.7 8.8,19.6 8.8,19.6 			"/>
			<polygon class="st262" points="18,10.5 16.2,8.7 8.7,16.2 5.7,13.2 3.9,15 8.7,19.7 8.7,19.6 8.8,19.6 			"/>
			<polygon class="st263" points="18,10.4 16.2,8.7 8.7,16.1 5.7,13.2 3.9,15 8.6,19.7 8.7,19.6 8.8,19.6 			"/>
			<polygon class="st264" points="18,10.4 16.2,8.6 8.7,16.1 5.7,13.2 3.9,15 8.6,19.7 8.7,19.6 8.7,19.6 			"/>
			<polygon class="st265" points="18,10.4 16.2,8.6 8.6,16.1 5.7,13.2 3.9,15 8.6,19.7 8.7,19.6 8.7,19.6 			"/>
			<polygon class="st266" points="18,10.4 16.2,8.6 8.6,16.1 5.6,13.2 3.9,14.9 8.6,19.6 8.7,19.6 8.7,19.6 			"/>
			<polygon class="st267" points="18,10.4 16.2,8.6 8.6,16.1 5.6,13.2 3.9,14.9 8.6,19.6 8.7,19.5 8.7,19.6 			"/>
			<polygon class="st268" points="18,10.4 16.2,8.6 8.6,16.1 5.6,13.1 3.8,14.9 8.6,19.6 8.7,19.5 8.7,19.6 			"/>
			<polygon class="st269" points="17.9,10.4 16.2,8.6 8.6,16.1 5.6,13.1 3.8,14.9 8.6,19.6 8.7,19.5 8.7,19.5 			"/>
			<polygon class="st270" points="17.9,10.4 16.2,8.6 8.6,16.1 5.6,13.1 3.8,14.9 8.6,19.6 8.7,19.5 8.7,19.5 			"/>
			<polygon class="st271" points="17.9,10.4 16.1,8.6 8.6,16.1 5.6,13.1 3.8,14.9 8.6,19.6 8.7,19.5 8.7,19.5 			"/>
			<polygon class="st272" points="17.9,10.3 16.1,8.6 8.6,16 5.6,13.1 3.8,14.9 8.5,19.6 8.6,19.5 8.7,19.5 			"/>
			<polygon class="st273" points="17.9,10.3 16.1,8.6 8.6,16 5.6,13.1 3.8,14.9 8.5,19.6 8.6,19.5 8.6,19.5 			"/>
			<polygon class="st274" points="17.9,10.3 16.1,8.5 8.5,16 5.6,13.1 3.8,14.9 8.5,19.6 8.6,19.5 8.6,19.5 			"/>
			<polygon class="st275" points="17.9,10.3 16.1,8.5 8.5,16 5.5,13.1 3.8,14.8 8.5,19.5 8.6,19.5 8.6,19.5 			"/>
			<polygon class="st276" points="17.9,10.3 16.1,8.5 8.5,16 5.5,13.1 3.8,14.8 8.5,19.5 8.6,19.4 8.6,19.5 			"/>
			<polygon class="st277" points="17.9,10.3 16.1,8.5 8.5,16 5.5,13 3.7,14.8 8.5,19.5 8.6,19.4 8.6,19.5 			"/>
			<polygon class="st278" points="17.8,10.3 16.1,8.5 8.5,16 5.5,13 3.7,14.8 8.5,19.5 8.6,19.4 8.6,19.4 			"/>
			<polygon class="st279" points="17.8,10.3 16.1,8.5 8.5,16 5.5,13 3.7,14.8 8.5,19.5 8.6,19.4 8.6,19.4 			"/>
			<polygon class="st280" points="17.8,10.3 16,8.5 8.5,16 5.5,13 3.7,14.8 8.5,19.5 8.6,19.4 8.6,19.4 			"/>
			<polygon class="st281" points="17.8,10.2 16,8.5 8.5,15.9 5.5,13 3.7,14.8 8.4,19.5 8.5,19.4 8.6,19.4 			"/>
			<polygon class="st282" points="17.8,10.2 16,8.5 8.5,15.9 5.5,13 3.7,14.8 8.4,19.5 8.5,19.4 8.6,19.4 			"/>
			<polygon class="st283" points="17.8,10.2 16,8.4 8.4,15.9 5.5,13 3.7,14.8 8.4,19.5 8.5,19.4 8.5,19.4 			"/>
			<polygon class="st284" points="17.8,10.2 16,8.4 8.4,15.9 5.4,13 3.7,14.7 8.4,19.5 8.5,19.4 8.5,19.4 			"/>
			<polygon class="st285" points="17.8,10.2 16,8.4 8.4,15.9 5.4,13 3.7,14.7 8.4,19.4 8.5,19.3 8.5,19.4 			"/>
			<polygon class="st286" points="17.8,10.2 16,8.4 8.4,15.9 5.4,12.9 3.6,14.7 8.4,19.4 8.5,19.3 8.5,19.4 			"/>
			<polygon class="st287" points="17.7,10.2 16,8.4 8.4,15.9 5.4,12.9 3.6,14.7 8.4,19.4 8.5,19.3 8.5,19.3 			"/>
			<polygon class="st288" points="17.7,10.2 16,8.4 8.4,15.9 5.4,12.9 3.6,14.7 8.4,19.4 8.5,19.3 8.5,19.3 			"/>
			<polygon class="st289" points="17.7,10.2 15.9,8.4 8.4,15.9 5.4,12.9 3.6,14.7 8.4,19.4 8.5,19.3 8.5,19.3 			"/>
			<polygon class="st290" points="17.7,10.1 15.9,8.4 8.4,15.8 5.4,12.9 3.6,14.7 8.4,19.4 8.4,19.3 8.5,19.3 			"/>
			<polygon class="st291" points="17.7,10.1 15.9,8.4 8.4,15.8 5.4,12.9 3.6,14.7 8.3,19.4 8.4,19.3 8.5,19.3 			"/>
			<polygon class="st292" points="17.7,10.1 15.9,8.3 8.4,15.8 5.4,12.9 3.6,14.7 8.3,19.4 8.4,19.3 8.4,19.3 			"/>
			<polygon class="st293" points="17.7,10.1 15.9,8.3 8.3,15.8 5.3,12.9 3.6,14.6 8.3,19.4 8.4,19.3 8.4,19.3 			"/>
			<polygon class="st294" points="17.7,10.1 15.9,8.3 8.3,15.8 5.3,12.9 3.6,14.6 8.3,19.3 8.4,19.2 8.4,19.3 			"/>
			<polygon class="st295" points="17.7,10.1 15.9,8.3 8.3,15.8 5.3,12.8 3.5,14.6 8.3,19.3 8.4,19.2 8.4,19.3 			"/>
			<polygon class="st296" points="17.6,10.1 15.9,8.3 8.3,15.8 5.3,12.8 3.5,14.6 8.3,19.3 8.4,19.2 8.4,19.2 			"/>
			<polygon class="st297" points="17.6,10.1 15.9,8.3 8.3,15.8 5.3,12.8 3.5,14.6 8.3,19.3 8.4,19.2 8.4,19.2 			"/>
			<polygon class="st298" points="17.6,10.1 15.8,8.3 8.3,15.8 5.3,12.8 3.5,14.6 8.3,19.3 8.4,19.2 8.4,19.2 			"/>
			<polygon class="st299" points="17.6,10 15.8,8.3 8.3,15.7 5.3,12.8 3.5,14.6 8.3,19.3 8.3,19.2 8.4,19.2 			"/>
			<polygon class="st300" points="17.6,10 15.8,8.3 8.3,15.7 5.3,12.8 3.5,14.6 8.2,19.3 8.3,19.2 8.4,19.2 			"/>
			<polygon class="st301" points="17.6,10 15.8,8.2 8.3,15.7 5.3,12.8 3.5,14.6 8.2,19.3 8.3,19.2 8.3,19.2 			"/>
			<polygon class="st302" points="17.6,10 15.8,8.2 8.2,15.7 5.3,12.8 3.5,14.6 8.2,19.3 8.3,19.2 8.3,19.2 			"/>
			<polygon class="st303" points="17.6,10 15.8,8.2 8.2,15.7 5.2,12.8 3.5,14.5 8.2,19.2 8.3,19.1 8.3,19.2 			"/>
			<polygon class="st304" points="17.6,10 15.8,8.2 8.2,15.7 5.2,12.8 3.5,14.5 8.2,19.2 8.3,19.1 8.3,19.2 			"/>
			<polygon class="st305" points="17.6,10 15.8,8.2 8.2,15.7 5.2,12.7 3.4,14.5 8.2,19.2 8.3,19.1 8.3,19.1 			"/>
		</g>
		<polygon class="st306" points="17.6,10 15.8,8.2 8.2,15.7 5.2,12.7 3.4,14.5 8.2,19.2 8.3,19.1 8.3,19.1 		"/>
	</g>
</g>
</svg>
