<?xml version="1.0" encoding="utf-8"?>
<!-- Generator: Adobe Illustrator 16.0.0, SVG Export Plug-In . SVG Version: 6.00 Build 0)  -->
<!DOCTYPE svg PUBLIC "-//W3C//DTD SVG 1.1//EN" "http://www.w3.org/Graphics/SVG/1.1/DTD/svg11.dtd">
<svg version="1.1" id="Layer_1" xmlns="http://www.w3.org/2000/svg" xmlns:xlink="http://www.w3.org/1999/xlink" x="0px" y="0px"
	 width="118px" height="32px" viewBox="0 0 118 32" enable-background="new 0 0 118 32" xml:space="preserve">
<g>
	<path fill="#353535" d="M29.78,19.494v-5.332c0-0.411,0.026-0.919,0.081-1.524h-0.027c-0.085,0.354-0.163,0.603-0.23,0.746
		l-2.752,6.11H26.46l-2.746-6.067c-0.071-0.154-0.146-0.417-0.225-0.789h-0.027c0.029,0.196,0.042,0.7,0.042,1.508v5.348h-0.842
		v-7.896h1.132l2.467,5.562c0.201,0.451,0.324,0.762,0.371,0.934h0.032c0.054-0.146,0.183-0.467,0.387-0.961l2.527-5.535h1.067
		v7.896L29.78,19.494L29.78,19.494z"/>
	<path fill="#353535" d="M37.261,11.598l-2.602,4.979v2.918h-0.875v-2.908l-2.542-4.987h0.992l1.796,3.609
		c0.022,0.042,0.086,0.201,0.194,0.472h0.016c0.036-0.114,0.107-0.271,0.215-0.472l1.882-3.609L37.261,11.598L37.261,11.598z"/>
	<path fill="#353535" d="M42.003,16.496v3H41.14v-7.896h2.129c0.829,0,1.476,0.206,1.938,0.616c0.464,0.412,0.695,0.989,0.695,1.732
		c0,0.769-0.271,1.394-0.815,1.873c-0.543,0.479-1.219,0.705-2.027,0.676H42.003z M42.003,12.402v3.283h0.992
		c0.647,0,1.141-0.146,1.483-0.44c0.341-0.293,0.513-0.711,0.513-1.256c0-1.058-0.626-1.588-1.877-1.588L42.003,12.402
		L42.003,12.402z"/>
	<path fill="#353535" d="M49.635,14.73c-0.161-0.122-0.388-0.183-0.681-0.183c-0.387,0-0.709,0.188-0.97,0.563
		c-0.262,0.375-0.392,0.875-0.392,1.496v2.887H46.74v-5.639h0.853v1.17h0.021c0.128-0.397,0.325-0.708,0.588-0.931
		c0.263-0.223,0.557-0.334,0.882-0.334c0.236,0,0.42,0.024,0.552,0.075L49.635,14.73L49.635,14.73z"/>
	<path fill="#353535" d="M54.411,16.887h-3.996c0.018,0.652,0.192,1.15,0.522,1.495c0.332,0.345,0.776,0.518,1.333,0.518
		c0.643,0,1.23-0.213,1.76-0.639v0.814c-0.504,0.368-1.157,0.554-1.958,0.554c-0.794,0-1.416-0.261-1.865-0.78
		c-0.449-0.521-0.673-1.24-0.673-2.161c0-0.853,0.247-1.561,0.74-2.12c0.493-0.56,1.105-0.84,1.834-0.84
		c0.729,0,1.295,0.239,1.698,0.717c0.402,0.477,0.604,1.138,0.604,1.982V16.887z M53.532,16.136c0-0.526-0.126-0.937-0.378-1.234
		c-0.251-0.296-0.604-0.446-1.054-0.446c-0.426,0-0.792,0.153-1.1,0.458c-0.307,0.306-0.499,0.712-0.573,1.221L53.532,16.136
		L53.532,16.136z"/>
	<path fill="#353535" d="M58.122,16.688h-3.003v-0.681h3.003V16.688z"/>
	<path fill="#353535" d="M65.377,19.494h-0.96l-0.858-2.243h-3.385l-0.799,2.243h-0.965l3.035-7.896h0.881L65.377,19.494z
		 M63.263,16.457l-1.26-3.412c-0.047-0.125-0.086-0.298-0.118-0.52h-0.025c-0.04,0.247-0.083,0.42-0.129,0.52l-1.251,3.412H63.263z"
		/>
	<path fill="#353535" d="M70.396,19.494h-0.854v-0.891h-0.021c-0.371,0.682-0.952,1.024-1.737,1.024
		c-1.345,0-2.017-0.802-2.017-2.403v-3.369h0.843v3.229c0,1.212,0.461,1.818,1.383,1.818c0.451,0,0.821-0.168,1.113-0.502
		c0.291-0.335,0.436-0.768,0.436-1.301v-3.245h0.854V19.494z"/>
	<path fill="#353535" d="M74.251,19.439c-0.214,0.12-0.488,0.179-0.819,0.179c-0.97,0-1.456-0.545-1.456-1.637V14.59h-0.975v-0.735
		h0.975v-1.383l0.849-0.274v1.657h1.426v0.735h-1.426v3.234c0,0.397,0.064,0.676,0.198,0.832c0.132,0.158,0.347,0.235,0.643,0.235
		c0.226,0,0.421-0.062,0.585-0.188L74.251,19.439L74.251,19.439z"/>
	<path fill="#353535" d="M79.559,19.494h-0.846v-3.251c0-1.198-0.448-1.797-1.341-1.797c-0.447,0-0.825,0.174-1.133,0.521
		c-0.309,0.347-0.461,0.791-0.461,1.336v3.192h-0.854v-8.341h0.854V14.8h0.02c0.434-0.715,1.052-1.074,1.857-1.074
		c1.269,0,1.903,0.766,1.903,2.297V19.494z"/>
	<path fill="#353535" d="M80.35,16.747c0-0.936,0.255-1.674,0.765-2.212c0.51-0.538,1.206-0.808,2.089-0.808
		c0.822,0,1.47,0.259,1.944,0.776c0.476,0.517,0.711,1.236,0.711,2.16c0,0.894-0.256,1.611-0.766,2.153
		c-0.513,0.542-1.186,0.813-2.023,0.813c-0.818,0-1.477-0.265-1.975-0.794C80.599,18.305,80.35,17.609,80.35,16.747z M81.213,16.71
		c0,0.665,0.176,1.197,0.522,1.596c0.351,0.398,0.813,0.598,1.393,0.598c0.602,0,1.062-0.192,1.381-0.577
		c0.32-0.384,0.48-0.93,0.48-1.639c0-0.71-0.162-1.263-0.482-1.654c-0.322-0.391-0.781-0.588-1.38-0.588
		c-0.583,0-1.048,0.203-1.395,0.606C81.388,15.456,81.213,16.008,81.213,16.71z"/>
	<path fill="#353535" d="M89.66,14.73c-0.16-0.122-0.388-0.183-0.681-0.183c-0.386,0-0.71,0.188-0.97,0.563
		c-0.263,0.375-0.392,0.875-0.392,1.496v2.887h-0.854v-5.639h0.854v1.17h0.021c0.129-0.397,0.324-0.708,0.587-0.931
		c0.264-0.223,0.558-0.334,0.884-0.334c0.235,0,0.42,0.024,0.553,0.075v0.896H89.66z"/>
	<path fill="#353535" d="M89.984,11.829c0-0.161,0.055-0.296,0.162-0.405c0.106-0.109,0.237-0.164,0.391-0.164
		c0.161,0,0.296,0.055,0.405,0.166c0.109,0.11,0.163,0.245,0.163,0.402c0,0.161-0.054,0.294-0.163,0.402
		c-0.109,0.107-0.244,0.161-0.405,0.161c-0.153,0-0.284-0.052-0.391-0.158C90.039,12.128,89.984,11.993,89.984,11.829z
		 M90.104,19.494v-5.639h0.847v5.639H90.104z"/>
	<path fill="#353535" d="M96.113,19.494h-4.596v-0.253l3.363-4.651h-3.054v-0.735h4.323v0.22l-3.379,4.683h3.342V19.494z"/>
	<path fill="#353535" d="M96.912,14.258c0.551-0.354,1.184-0.532,1.898-0.532c1.309,0,1.964,0.694,1.964,2.082v3.685h-0.853v-0.885
		h-0.033c-0.39,0.679-0.967,1.018-1.732,1.018c-0.551,0-0.988-0.147-1.312-0.442c-0.324-0.295-0.484-0.689-0.484-1.182
		c0-1.049,0.618-1.658,1.855-1.831l1.701-0.247c0-0.98-0.392-1.47-1.171-1.47c-0.686,0-1.297,0.234-1.833,0.703L96.912,14.258
		L96.912,14.258z M98.538,16.817c-0.44,0.058-0.766,0.164-0.977,0.322c-0.211,0.156-0.316,0.425-0.316,0.803
		c0,0.286,0.102,0.517,0.305,0.692c0.2,0.175,0.467,0.263,0.795,0.263c0.455,0,0.831-0.16,1.128-0.482
		c0.296-0.321,0.445-0.726,0.445-1.213v-0.568L98.538,16.817z"/>
	<path fill="#353535" d="M104.505,19.439c-0.214,0.12-0.488,0.179-0.82,0.179c-0.969,0-1.454-0.545-1.454-1.637V14.59h-0.976v-0.735
		h0.976v-1.383l0.849-0.274v1.657h1.426v0.735h-1.426v3.234c0,0.397,0.064,0.676,0.196,0.832c0.134,0.158,0.349,0.235,0.644,0.235
		c0.228,0,0.422-0.062,0.586-0.188V19.439L104.505,19.439z"/>
	<path fill="#353535" d="M105.065,11.829c0-0.161,0.055-0.296,0.161-0.405c0.106-0.109,0.237-0.164,0.392-0.164
		c0.16,0,0.296,0.055,0.404,0.166c0.109,0.11,0.163,0.245,0.163,0.402c0,0.161-0.054,0.294-0.163,0.402
		c-0.108,0.107-0.244,0.161-0.404,0.161c-0.154,0-0.285-0.052-0.392-0.158C105.12,12.128,105.065,11.993,105.065,11.829z
		 M105.185,19.494v-5.639h0.847v5.639H105.185z"/>
	<path fill="#353535" d="M106.952,16.747c0-0.936,0.255-1.674,0.765-2.212c0.509-0.538,1.206-0.808,2.089-0.808
		c0.822,0,1.47,0.259,1.944,0.776c0.475,0.517,0.71,1.236,0.71,2.16c0,0.894-0.255,1.611-0.765,2.153
		c-0.513,0.542-1.187,0.813-2.022,0.813c-0.819,0-1.478-0.265-1.975-0.794C107.201,18.305,106.952,17.609,106.952,16.747z
		 M107.814,16.71c0,0.665,0.176,1.197,0.523,1.596c0.351,0.398,0.813,0.598,1.393,0.598c0.601,0,1.062-0.192,1.381-0.577
		c0.32-0.384,0.48-0.93,0.48-1.639c0-0.71-0.162-1.263-0.482-1.654c-0.322-0.391-0.782-0.588-1.38-0.588
		c-0.583,0-1.048,0.203-1.394,0.606C107.989,15.456,107.814,16.008,107.814,16.71z"/>
	<path fill="#353535" d="M118,19.494h-0.853v-3.219c0-1.219-0.445-1.829-1.336-1.829c-0.457,0-0.839,0.173-1.14,0.518
		c-0.301,0.344-0.453,0.784-0.453,1.317v3.214h-0.854v-5.639h0.854v0.945h0.021c0.422-0.715,1.039-1.074,1.852-1.074
		c0.617,0,1.09,0.199,1.418,0.597c0.327,0.397,0.491,0.973,0.491,1.727V19.494L118,19.494z"/>
</g>
<g>
	<g>
		<g>
			<path fill="#F05F67" d="M8.882,23.799c0,0-10.761-4.762-7.332-11.998c0,0,3.143-4.476,7.332,0V23.799z"/>
			<path fill="#EE3D4F" d="M8.882,23.799c0,0,10.76-4.762,7.333-11.998c0,0-3.143-4.476-7.333,0V23.799z"/>
		</g>
	</g>
	<g>
		<g opacity="0.5">
			<polygon fill="#FFFFFF" fill-opacity="0" points="20.813,13.277 19.034,11.5 11.47,18.98 8.481,16.038 6.702,17.816 11.45,22.52 
				11.544,22.425 11.565,22.445 			"/>
			<polygon opacity="0.0017" fill="#FEFEFE" enable-background="new    " points="20.801,13.266 19.022,11.488 11.459,18.971 
				8.47,16.026 6.691,17.807 11.438,22.508 11.533,22.414 11.554,22.436 			"/>
			<polygon opacity="0.0033" fill="#FDFDFD" enable-background="new    " points="20.791,13.255 19.012,11.478 11.449,18.959 
				8.459,16.016 6.681,17.795 11.428,22.496 11.523,22.402 11.543,22.423 			"/>
			<polygon opacity="0.005" fill="#FCFCFC" enable-background="new    " points="20.78,13.245 19.001,11.467 11.438,18.947 
				8.449,16.004 6.67,17.784 11.417,22.484 11.512,22.393 11.533,22.413 			"/>
			<polygon opacity="0.0066" fill="#FCFCFC" enable-background="new    " points="20.77,13.234 18.99,11.456 11.427,18.938 
				8.438,15.994 6.659,17.773 11.407,22.475 11.501,22.381 11.522,22.4 			"/>
			<polygon opacity="0.0083" fill="#FBFBFB" enable-background="new    " points="20.758,13.223 18.979,11.444 11.416,18.928 
				8.427,15.983 6.647,17.764 11.396,22.464 11.49,22.37 11.511,22.391 			"/>
			<polygon opacity="0.01" fill="#FAFAFA" enable-background="new    " points="20.747,13.212 18.969,11.434 11.405,18.916 
				8.417,15.972 6.637,17.752 11.385,22.453 11.479,22.359 11.5,22.38 			"/>
			<polygon opacity="0.0116" fill="#F9F9F9" enable-background="new    " points="20.737,13.201 18.958,11.423 11.395,18.904 
				8.406,15.961 6.626,17.74 11.374,22.441 11.469,22.35 11.49,22.369 			"/>
			<polygon opacity="0.0133" fill="#F8F8F8" enable-background="new    " points="20.726,13.189 18.947,11.412 11.383,18.895 
				8.395,15.95 6.615,17.729 11.363,22.432 11.457,22.337 11.479,22.357 			"/>
			<polygon opacity="0.015" fill="#F7F7F7" enable-background="new    " points="20.715,13.178 18.936,11.401 11.373,18.883 
				8.384,15.938 6.604,17.719 11.352,22.42 11.447,22.326 11.468,22.348 			"/>
			<polygon opacity="0.0166" fill="#F7F7F7" enable-background="new    " points="20.704,13.167 18.925,11.39 11.362,18.872 
				8.373,15.928 6.594,17.708 11.341,22.409 11.436,22.314 11.457,22.336 			"/>
			<polygon opacity="0.0183" fill="#F6F6F6" enable-background="new    " points="20.694,13.157 18.915,11.379 11.351,18.861 
				8.363,15.917 6.583,17.695 11.331,22.398 11.425,22.305 11.446,22.325 			"/>
			<polygon opacity="0.0199" fill="#F5F5F5" enable-background="new    " points="20.683,13.146 18.904,11.368 11.341,18.85 
				8.352,15.906 6.572,17.686 11.32,22.389 11.415,22.293 11.436,22.314 			"/>
			<polygon opacity="0.0216" fill="#F4F4F4" enable-background="new    " points="20.671,13.135 18.893,11.357 11.329,18.839 
				8.34,15.895 6.561,17.675 11.309,22.376 11.403,22.281 11.424,22.303 			"/>
			<polygon opacity="0.0233" fill="#F3F3F3" enable-background="new    " points="20.661,13.124 18.882,11.346 11.318,18.828 
				8.33,15.884 6.55,17.664 11.298,22.365 11.393,22.271 11.414,22.292 			"/>
			<polygon opacity="0.0249" fill="#F2F2F2" enable-background="new    " points="20.65,13.113 18.871,11.335 11.308,18.816 
				8.319,15.873 6.54,17.652 11.287,22.354 11.382,22.262 11.403,22.281 			"/>
			<polygon opacity="0.0266" fill="#F1F1F1" enable-background="new    " points="20.639,13.102 18.86,11.324 11.297,18.807 
				8.308,15.862 6.528,17.643 11.276,22.344 11.371,22.249 11.392,22.27 			"/>
			<polygon opacity="0.0282" fill="#F1F1F1" enable-background="new    " points="20.628,13.091 18.85,11.313 11.286,18.795 
				8.297,15.851 6.518,17.631 11.266,22.332 11.36,22.238 11.381,22.259 			"/>
			<polygon opacity="0.0299" fill="#F0F0F0" enable-background="new    " points="20.617,13.08 18.839,11.302 11.275,18.784 
				8.286,15.84 6.507,17.62 11.255,22.32 11.349,22.229 11.371,22.248 			"/>
			<polygon opacity="0.0316" fill="#EFEFEF" enable-background="new    " points="20.606,13.069 18.828,11.291 11.264,18.773 
				8.276,15.83 6.497,17.609 11.244,22.311 11.339,22.217 11.36,22.236 			"/>
			<polygon opacity="0.0332" fill="#EEEEEE" enable-background="new    " points="20.596,13.059 18.817,11.28 11.254,18.764 
				8.265,15.819 6.486,17.6 11.233,22.3 11.328,22.206 11.349,22.227 			"/>
			<polygon opacity="0.0349" fill="#EDEDED" enable-background="new    " points="20.585,13.047 18.806,11.27 11.243,18.751 
				8.254,15.807 6.475,17.587 11.222,22.288 11.316,22.193 11.338,22.215 			"/>
			<polygon opacity="0.0365" fill="#ECECEC" enable-background="new    " points="20.574,13.036 18.795,11.259 11.232,18.74 
				8.243,15.796 6.463,17.576 11.211,22.277 11.306,22.184 11.327,22.204 			"/>
			<polygon opacity="0.0382" fill="#ECECEC" enable-background="new    " points="20.563,13.025 18.785,11.248 11.221,18.729 
				8.232,15.786 6.453,17.564 11.201,22.268 11.295,22.173 11.316,22.193 			"/>
			<polygon opacity="0.0399" fill="#EBEBEB" enable-background="new    " points="20.552,13.014 18.773,11.236 11.21,18.719 
				8.221,15.774 6.442,17.555 11.189,22.256 11.284,22.161 11.305,22.182 			"/>
			<polygon opacity="0.0415" fill="#EAEAEA" enable-background="new    " points="20.542,13.003 18.763,11.226 11.199,18.707 
				8.21,15.764 6.431,17.543 11.179,22.244 11.273,22.15 11.294,22.172 			"/>
			<polygon opacity="0.0432" fill="#E9E9E9" enable-background="new    " points="20.531,12.992 18.752,11.215 11.188,18.695 
				8.2,15.753 6.42,17.531 11.168,22.232 11.263,22.141 11.284,22.16 			"/>
			<polygon opacity="0.0449" fill="#E8E8E8" enable-background="new    " points="20.52,12.981 18.741,11.204 11.178,18.686 
				8.189,15.742 6.41,17.521 11.157,22.223 11.252,22.129 11.273,22.148 			"/>
			<polygon opacity="0.0465" fill="#E7E7E7" enable-background="new    " points="20.51,12.971 18.73,11.193 11.167,18.675 
				8.178,15.731 6.399,17.512 11.146,22.212 11.241,22.118 11.262,22.139 			"/>
			<polygon opacity="0.0482" fill="#E6E6E6" enable-background="new    " points="20.498,12.959 18.72,11.182 11.156,18.663 
				8.167,15.72 6.388,17.499 11.135,22.2 11.23,22.105 11.251,22.128 			"/>
			<polygon opacity="0.0498" fill="#E6E6E6" enable-background="new    " points="20.487,12.949 18.708,11.171 11.145,18.652 
				8.156,15.708 6.377,17.488 11.125,22.189 11.219,22.096 11.241,22.116 			"/>
			<polygon opacity="0.0515" fill="#E5E5E5" enable-background="new    " points="20.477,12.938 18.698,11.16 11.135,18.643 
				8.146,15.698 6.366,17.479 11.114,22.18 11.208,22.085 11.23,22.105 			"/>
			<polygon opacity="0.0532" fill="#E4E4E4" enable-background="new    " points="20.465,12.927 18.687,11.149 11.124,18.631 
				8.134,15.687 6.355,17.467 11.103,22.168 11.197,22.074 11.219,22.096 			"/>
			<polygon opacity="0.0548" fill="#E3E3E3" enable-background="new    " points="20.455,12.916 18.676,11.138 11.112,18.62 
				8.124,15.676 6.345,17.455 11.092,22.156 11.187,22.063 11.208,22.084 			"/>
			<polygon opacity="0.0565" fill="#E2E2E2" enable-background="new    " points="20.444,12.905 18.665,11.127 11.102,18.609 
				8.113,15.665 6.333,17.443 11.082,22.146 11.176,22.053 11.197,22.072 			"/>
			<polygon opacity="0.0581" fill="#E1E1E1" enable-background="new    " points="20.434,12.894 18.655,11.116 11.091,18.598 
				8.103,15.654 6.323,17.434 11.071,22.137 11.165,22.041 11.186,22.063 			"/>
			<polygon opacity="0.0598" fill="#E1E1E1" enable-background="new    " points="20.422,12.883 18.644,11.105 11.081,18.587 
				8.092,15.643 6.313,17.423 11.06,22.125 11.155,22.029 11.175,22.051 			"/>
			<polygon opacity="0.0615" fill="#E0E0E0" enable-background="new    " points="20.412,12.872 18.632,11.094 11.069,18.576 
				8.081,15.632 6.301,17.411 11.049,22.113 11.144,22.02 11.165,22.04 			"/>
			<polygon opacity="0.0631" fill="#DFDFDF" enable-background="new    " points="20.401,12.861 18.622,11.083 11.059,18.564 
				8.069,15.621 6.29,17.4 11.038,22.104 11.133,22.008 11.154,22.029 			"/>
			<polygon opacity="0.0648" fill="#DEDEDE" enable-background="new    " points="20.39,12.85 18.611,11.072 11.048,18.555 
				8.059,15.61 6.279,17.391 11.027,22.092 11.122,21.998 11.143,22.018 			"/>
			<polygon opacity="0.0664" fill="#DDDDDD" enable-background="new    " points="20.379,12.839 18.6,11.061 11.037,18.543 
				8.048,15.599 6.269,17.379 11.016,22.08 11.111,21.986 11.132,22.007 			"/>
			<polygon opacity="0.0681" fill="#DCDCDC" enable-background="new    " points="20.368,12.828 18.589,11.05 11.026,18.531 
				8.037,15.588 6.258,17.367 11.005,22.068 11.1,21.977 11.121,21.996 			"/>
			<polygon opacity="0.0698" fill="#DBDBDB" enable-background="new    " points="20.357,12.817 18.579,11.039 11.015,18.521 
				8.026,15.577 6.247,17.357 10.994,22.059 11.089,21.965 11.11,21.984 			"/>
			<polygon opacity="0.0714" fill="#DBDBDB" enable-background="new    " points="20.347,12.807 18.568,11.028 11.004,18.512 
				8.016,15.566 6.236,17.348 10.984,22.048 11.079,21.954 11.1,21.975 			"/>
			<polygon opacity="0.0731" fill="#DADADA" enable-background="new    " points="20.336,12.796 18.558,11.018 10.994,18.5 
				8.005,15.556 6.226,17.336 10.973,22.037 11.068,21.941 11.089,21.963 			"/>
			<polygon opacity="0.0748" fill="#D9D9D9" enable-background="new    " points="20.325,12.784 18.546,11.006 10.982,18.488 
				7.994,15.544 6.214,17.324 10.962,22.025 11.057,21.932 11.078,21.952 			"/>
			<polygon opacity="0.0764" fill="#D8D8D8" enable-background="new    " points="20.314,12.773 18.535,10.995 10.972,18.479 
				7.983,15.534 6.204,17.313 10.951,22.016 11.046,21.921 11.067,21.941 			"/>
			<polygon opacity="0.0781" fill="#D7D7D7" enable-background="new    " points="20.304,12.763 18.524,10.984 10.961,18.467 
				7.972,15.522 6.193,17.303 10.94,22.004 11.035,21.91 11.056,21.932 			"/>
			<polygon opacity="0.0797" fill="#D6D6D6" enable-background="new    " points="20.292,12.751 18.513,10.973 10.95,18.455 
				7.961,15.511 6.182,17.291 10.929,21.992 11.024,21.898 11.045,21.919 			"/>
			<polygon opacity="0.0814" fill="#D5D5D5" enable-background="new    " points="20.281,12.74 18.502,10.962 10.939,18.443 
				7.95,15.5 6.171,17.279 10.919,21.98 11.013,21.889 11.034,21.908 			"/>
			<polygon opacity="0.0831" fill="#D5D5D5" enable-background="new    " points="20.271,12.729 18.492,10.952 10.929,18.434 
				7.94,15.489 6.16,17.27 10.908,21.971 11.003,21.877 11.023,21.896 			"/>
			<polygon opacity="0.0847" fill="#D4D4D4" enable-background="new    " points="20.26,12.719 18.481,10.94 10.918,18.423 
				7.929,15.479 6.149,17.259 10.897,21.96 10.992,21.866 11.013,21.887 			"/>
			<polygon opacity="0.0864" fill="#D3D3D3" enable-background="new    " points="20.249,12.708 18.47,10.93 10.907,18.412 
				7.918,15.468 6.139,17.248 10.887,21.949 10.981,21.855 11.002,21.876 			"/>
			<polygon opacity="0.088" fill="#D2D2D2" enable-background="new    " points="20.238,12.696 18.459,10.918 10.896,18.4 
				7.907,15.457 6.128,17.236 10.875,21.938 10.97,21.844 10.991,21.863 			"/>
			<polygon opacity="0.0897" fill="#D1D1D1" enable-background="new    " points="20.227,12.686 18.449,10.908 10.885,18.391 
				7.896,15.446 6.117,17.227 10.865,21.928 10.959,21.833 10.98,21.854 			"/>
			<polygon opacity="0.0914" fill="#D0D0D0" enable-background="new    " points="20.217,12.675 18.438,10.897 10.875,18.379 
				7.886,15.435 6.106,17.215 10.854,21.916 10.948,21.822 10.97,21.844 			"/>
			<polygon opacity="0.093" fill="#D0D0D0" enable-background="new    " points="20.206,12.664 18.427,10.886 10.863,18.368 
				7.874,15.423 6.095,17.203 10.842,21.904 10.938,21.811 10.958,21.832 			"/>
			<polygon opacity="0.0947" fill="#CFCFCF" enable-background="new    " points="20.195,12.653 18.416,10.875 10.853,18.357 
				7.864,15.413 6.084,17.191 10.832,21.895 10.927,21.8 10.947,21.82 			"/>
			<polygon opacity="0.0963" fill="#CECECE" enable-background="new    " points="20.184,12.642 18.405,10.864 10.842,18.346 
				7.853,15.402 6.074,17.182 10.821,21.883 10.916,21.789 10.937,21.811 			"/>
			<polygon opacity="0.098" fill="#CDCDCD" enable-background="new    " points="20.174,12.631 18.395,10.853 10.831,18.335 
				7.842,15.391 6.063,17.171 10.811,21.872 10.905,21.777 10.926,21.799 			"/>
			<polygon opacity="0.0997" fill="#CCCCCC" enable-background="new    " points="20.163,12.62 18.384,10.842 10.82,18.324 
				7.832,15.38 6.052,17.16 10.8,21.861 10.895,21.768 10.916,21.788 			"/>
			<polygon opacity="0.1013" fill="#CBCBCB" enable-background="new    " points="20.151,12.609 18.373,10.831 10.81,18.313 
				7.82,15.369 6.041,17.148 10.789,21.852 10.883,21.756 10.904,21.775 			"/>
			<polygon opacity="0.103" fill="#CACACA" enable-background="new    " points="20.141,12.598 18.362,10.82 10.798,18.303 
				7.81,15.358 6.03,17.139 10.778,21.84 10.873,21.745 10.894,21.766 			"/>
			<polygon opacity="0.1047" fill="#CACACA" enable-background="new    " points="20.13,12.587 18.351,10.809 10.788,18.291 
				7.799,15.347 6.02,17.127 10.767,21.828 10.862,21.734 10.883,21.756 			"/>
			<polygon opacity="0.1063" fill="#C9C9C9" enable-background="new    " points="20.119,12.576 18.34,10.798 10.776,18.279 
				7.788,15.336 6.008,17.115 10.756,21.816 10.851,21.723 10.872,21.744 			"/>
			<polygon opacity="0.108" fill="#C8C8C8" enable-background="new    " points="20.108,12.565 18.33,10.787 10.766,18.27 
				7.777,15.325 5.998,17.104 10.745,21.807 10.84,21.713 10.861,21.732 			"/>
			<polygon opacity="0.1096" fill="#C7C7C7" enable-background="new    " points="20.097,12.554 18.318,10.776 10.755,18.259 
				7.767,15.314 5.987,17.094 10.734,21.796 10.829,21.701 10.851,21.723 			"/>
			<polygon opacity="0.1113" fill="#C6C6C6" enable-background="new    " points="20.086,12.543 18.308,10.766 10.744,18.247 
				7.756,15.304 5.977,17.083 10.724,21.785 10.818,21.689 10.84,21.712 			"/>
			<polygon opacity="0.113" fill="#C5C5C5" enable-background="new    " points="20.076,12.533 18.297,10.755 10.733,18.236 
				7.745,15.292 5.965,17.072 10.713,21.773 10.808,21.68 10.829,21.7 			"/>
			<polygon opacity="0.1146" fill="#C5C5C5" enable-background="new    " points="20.065,12.521 18.286,10.744 10.723,18.227 
				7.733,15.281 5.954,17.063 10.702,21.764 10.797,21.668 10.817,21.689 			"/>
			<polygon opacity="0.1163" fill="#C4C4C4" enable-background="new    " points="20.054,12.511 18.275,10.732 10.712,18.215 
				7.723,15.271 5.944,17.051 10.691,21.752 10.786,21.656 10.807,21.678 			"/>
			<polygon opacity="0.1179" fill="#C3C3C3" enable-background="new    " points="20.043,12.5 18.265,10.722 10.701,18.203 
				7.712,15.259 5.933,17.039 10.68,21.741 10.775,21.646 10.796,21.668 			"/>
			<polygon opacity="0.1196" fill="#C2C2C2" enable-background="new    " points="20.032,12.488 18.253,10.71 10.689,18.191 
				7.701,15.249 5.922,17.027 10.669,21.729 10.764,21.635 10.785,21.656 			"/>
			<polygon opacity="0.1213" fill="#C1C1C1" enable-background="new    " points="20.021,12.478 18.242,10.7 10.679,18.182 
				7.69,15.237 5.911,17.018 10.658,21.719 10.753,21.625 10.774,21.646 			"/>
			<polygon opacity="0.1229" fill="#C0C0C0" enable-background="new    " points="20.011,12.467 18.232,10.688 10.668,18.171 
				7.68,15.227 5.9,17.007 10.647,21.708 10.743,21.613 10.764,21.635 			"/>
			<polygon opacity="0.1246" fill="#BFBFBF" enable-background="new    " points="20,12.456 18.221,10.678 10.658,18.16 
				7.669,15.216 5.89,16.996 10.637,21.697 10.732,21.604 10.753,21.624 			"/>
			<polygon opacity="0.1262" fill="#BFBFBF" enable-background="new    " points="19.989,12.444 18.21,10.667 10.646,18.148 
				7.658,15.205 5.879,16.984 10.626,21.688 10.721,21.592 10.742,21.613 			"/>
			<polygon opacity="0.1279" fill="#BEBEBE" enable-background="new    " points="19.979,12.434 18.199,10.656 10.636,18.139 
				7.647,15.193 5.868,16.975 10.615,21.676 10.71,21.581 10.731,21.602 			"/>
			<polygon opacity="0.1296" fill="#BDBDBD" enable-background="new    " points="19.967,12.422 18.188,10.645 10.625,18.127 
				7.636,15.183 5.857,16.963 10.604,21.664 10.699,21.57 10.72,21.591 			"/>
			<polygon opacity="0.1312" fill="#BCBCBC" enable-background="new    " points="19.957,12.412 18.178,10.634 10.614,18.115 
				7.625,15.172 5.846,16.951 10.594,21.652 10.688,21.559 10.709,21.58 			"/>
			<polygon opacity="0.1329" fill="#BBBBBB" enable-background="new    " points="19.946,12.401 18.167,10.623 10.604,18.105 
				7.614,15.161 5.835,16.941 10.583,21.643 10.678,21.549 10.699,21.568 			"/>
			<polygon opacity="0.1346" fill="#BABABA" enable-background="new    " points="19.935,12.39 18.156,10.612 10.592,18.094 
				7.604,15.15 5.824,16.93 10.572,21.631 10.667,21.537 10.688,21.559 			"/>
			<polygon opacity="0.1362" fill="#BABABA" enable-background="new    " points="19.924,12.379 18.145,10.601 10.581,18.083 
				7.593,15.139 5.813,16.918 10.561,21.62 10.656,21.525 10.677,21.547 			"/>
			<polygon opacity="0.1379" fill="#B9B9B9" enable-background="new    " points="19.913,12.368 18.135,10.59 10.571,18.072 
				7.582,15.128 5.803,16.908 10.551,21.609 10.645,21.516 10.666,21.535 			"/>
			<polygon opacity="0.1395" fill="#B8B8B8" enable-background="new    " points="19.902,12.357 18.124,10.579 10.561,18.063 
				7.571,15.117 5.792,16.896 10.54,21.6 10.634,21.505 10.655,21.525 			"/>
			<polygon opacity="0.1412" fill="#B7B7B7" enable-background="new    " points="19.892,12.346 18.112,10.568 10.55,18.05 
				7.561,15.105 5.781,16.887 10.528,21.588 10.624,21.493 10.645,21.514 			"/>
			<polygon opacity="0.1429" fill="#B6B6B6" enable-background="new    " points="19.881,12.335 18.102,10.557 10.538,18.039 
				7.549,15.095 5.77,16.875 10.518,21.576 10.612,21.482 10.633,21.503 			"/>
			<polygon opacity="0.1445" fill="#B5B5B5" enable-background="new    " points="19.87,12.324 18.091,10.546 10.527,18.027 
				7.539,15.084 5.76,16.863 10.507,21.564 10.602,21.473 10.623,21.492 			"/>
			<polygon opacity="0.1462" fill="#B4B4B4" enable-background="new    " points="19.859,12.313 18.08,10.535 10.517,18.018 
				7.528,15.073 5.749,16.854 10.496,21.555 10.591,21.461 10.612,21.48 			"/>
			<polygon opacity="0.1478" fill="#B4B4B4" enable-background="new    " points="19.849,12.303 18.069,10.524 10.506,18.006 
				7.517,15.063 5.737,16.842 10.485,21.543 10.58,21.449 10.601,21.471 			"/>
			<polygon opacity="0.1495" fill="#B3B3B3" enable-background="new    " points="19.837,12.291 18.059,10.513 10.495,17.995 
				7.506,15.051 5.727,16.83 10.474,21.531 10.569,21.438 10.59,21.459 			"/>
			<polygon opacity="0.1512" fill="#B2B2B2" enable-background="new    " points="19.827,12.28 18.048,10.502 10.484,17.984 
				7.495,15.04 5.716,16.82 10.464,21.521 10.558,21.428 10.579,21.447 			"/>
			<polygon opacity="0.1528" fill="#B1B1B1" enable-background="new    " points="19.816,12.27 18.037,10.491 10.474,17.975 
				7.484,15.029 5.706,16.809 10.453,21.512 10.548,21.417 10.569,21.438 			"/>
			<polygon opacity="0.1545" fill="#B0B0B0" enable-background="new    " points="19.805,12.258 18.026,10.48 10.463,17.963 
				7.474,15.019 5.694,16.798 10.442,21.5 10.537,21.404 10.558,21.426 			"/>
			<polygon opacity="0.1561" fill="#AFAFAF" enable-background="new    " points="19.794,12.247 18.015,10.469 10.452,17.951 
				7.462,15.007 5.683,16.787 10.431,21.488 10.525,21.395 10.547,21.416 			"/>
			<polygon opacity="0.1578" fill="#AFAFAF" enable-background="new    " points="19.783,12.236 18.005,10.458 10.441,17.939 
				7.452,14.997 5.673,16.775 10.42,21.479 10.515,21.384 10.536,21.404 			"/>
			<polygon opacity="0.1595" fill="#AEAEAE" enable-background="new    " points="19.772,12.226 17.994,10.448 10.43,17.93 
				7.441,14.985 5.662,16.766 10.41,21.469 10.504,21.373 10.525,21.395 			"/>
			<polygon opacity="0.1611" fill="#ADADAD" enable-background="new    " points="19.762,12.215 17.982,10.437 10.419,17.918 
				7.431,14.975 5.651,16.755 10.398,21.456 10.493,21.361 10.514,21.383 			"/>
			<polygon opacity="0.1628" fill="#ACACAC" enable-background="new    " points="19.751,12.203 17.972,10.425 10.408,17.906 
				7.419,14.963 5.64,16.743 10.388,21.445 10.482,21.352 10.503,21.371 			"/>
			<polygon opacity="0.1645" fill="#ABABAB" enable-background="new    " points="19.74,12.193 17.961,10.415 10.397,17.896 
				7.409,14.952 5.63,16.732 10.377,21.436 10.472,21.34 10.493,21.359 			"/>
			<polygon opacity="0.1661" fill="#AAAAAA" enable-background="new    " points="19.729,12.182 17.95,10.404 10.387,17.887 
				7.398,14.942 5.619,16.723 10.366,21.424 10.461,21.329 10.482,21.35 			"/>
			<polygon opacity="0.1678" fill="#A9A9A9" enable-background="new    " points="19.718,12.171 17.939,10.393 10.376,17.875 
				7.387,14.931 5.607,16.711 10.355,21.412 10.45,21.316 10.471,21.339 			"/>
			<polygon opacity="0.1694" fill="#A9A9A9" enable-background="new    " points="19.707,12.16 17.928,10.381 10.365,17.863 
				7.376,14.919 5.597,16.699 10.344,21.4 10.439,21.307 10.46,21.328 			"/>
			<polygon opacity="0.1711" fill="#A8A8A8" enable-background="new    " points="19.696,12.148 17.917,10.371 10.354,17.854 
				7.365,14.909 5.586,16.688 10.333,21.391 10.428,21.296 10.449,21.316 			"/>
			<polygon opacity="0.1728" fill="#A7A7A7" enable-background="new    " points="19.686,12.138 17.907,10.36 10.344,17.842 
				7.355,14.898 5.575,16.678 10.323,21.38 10.417,21.285 10.438,21.307 			"/>
			<polygon opacity="0.1744" fill="#A6A6A6" enable-background="new    " points="19.675,12.127 17.896,10.349 10.333,17.831 
				7.344,14.887 5.564,16.667 10.312,21.368 10.407,21.273 10.428,21.295 			"/>
			<polygon opacity="0.1761" fill="#A5A5A5" enable-background="new    " points="19.664,12.115 17.885,10.337 10.321,17.818 
				7.333,14.875 5.553,16.654 10.301,21.357 10.396,21.264 10.417,21.283 			"/>
			<polygon opacity="0.1777" fill="#A4A4A4" enable-background="new    " points="19.653,12.105 17.875,10.327 10.311,17.809 
				7.322,14.865 5.542,16.645 10.29,21.348 10.385,21.252 10.406,21.273 			"/>
			<polygon opacity="0.1794" fill="#A4A4A4" enable-background="new    " points="19.643,12.094 17.864,10.316 10.3,17.799 
				7.312,14.854 5.532,16.634 10.279,21.336 10.374,21.241 10.396,21.262 			"/>
			<polygon opacity="0.1811" fill="#A3A3A3" enable-background="new    " points="19.631,12.083 17.853,10.306 10.289,17.787 
				7.3,14.843 5.521,16.623 10.269,21.324 10.363,21.23 10.384,21.251 			"/>
			<polygon opacity="0.1827" fill="#A2A2A2" enable-background="new    " points="19.62,12.072 17.842,10.294 10.278,17.775 
				7.289,14.832 5.51,16.611 10.258,21.313 10.353,21.219 10.373,21.24 			"/>
			<polygon opacity="0.1844" fill="#A1A1A1" enable-background="new    " points="19.61,12.062 17.831,10.283 10.268,17.766 
				7.279,14.821 5.499,16.602 10.247,21.303 10.342,21.208 10.362,21.229 			"/>
			<polygon opacity="0.186" fill="#A0A0A0" enable-background="new    " points="19.6,12.051 17.82,10.272 10.257,17.754 
				7.268,14.811 5.489,16.59 10.236,21.292 10.331,21.197 10.353,21.219 			"/>
			<polygon opacity="0.1877" fill="#9F9F9F" enable-background="new    " points="19.588,12.039 17.81,10.262 10.246,17.743 
				7.257,14.799 5.478,16.579 10.226,21.281 10.32,21.188 10.341,21.207 			"/>
			<polygon opacity="0.1894" fill="#9E9E9E" enable-background="new    " points="19.577,12.028 17.798,10.25 10.235,17.732 
				7.246,14.788 5.467,16.566 10.214,21.27 10.309,21.175 10.33,21.195 			"/>
			<polygon opacity="0.191" fill="#9E9E9E" enable-background="new    " points="19.566,12.018 17.788,10.239 10.224,17.721 
				7.235,14.777 5.456,16.557 10.204,21.259 10.298,21.164 10.319,21.186 			"/>
			<polygon opacity="0.1927" fill="#9D9D9D" enable-background="new    " points="19.556,12.007 17.777,10.229 10.213,17.711 
				7.225,14.767 5.445,16.546 10.192,21.248 10.288,21.154 10.309,21.175 			"/>
			<polygon opacity="0.1944" fill="#9C9C9C" enable-background="new    " points="19.545,11.995 17.766,10.218 10.203,17.699 
				7.213,14.755 5.435,16.535 10.182,21.236 10.276,21.143 10.297,21.163 			"/>
			<polygon opacity="0.196" fill="#9B9B9B" enable-background="new    " points="19.534,11.984 17.755,10.206 10.191,17.688 
				7.202,14.744 5.423,16.523 10.171,21.227 10.266,21.131 10.286,21.152 			"/>
			<polygon opacity="0.1977" fill="#9A9A9A" enable-background="new    " points="19.523,11.974 17.745,10.195 10.181,17.678 
				7.192,14.733 5.413,16.514 10.16,21.215 10.255,21.121 10.276,21.143 			"/>
			<polygon opacity="0.1993" fill="#999999" enable-background="new    " points="19.513,11.963 17.733,10.185 10.17,17.667 
				7.182,14.723 5.402,16.502 10.149,21.204 10.244,21.109 10.266,21.131 			"/>
			<polygon opacity="0.201" fill="#989898" enable-background="new    " points="19.501,11.952 17.723,10.174 10.159,17.654 
				7.17,14.712 5.391,16.491 10.139,21.193 10.233,21.1 10.254,21.119 			"/>
			<polygon opacity="0.2027" fill="#989898" enable-background="new    " points="19.49,11.94 17.712,10.162 10.148,17.645 
				7.159,14.7 5.38,16.479 10.127,21.182 10.222,21.088 10.243,21.107 			"/>
			<polygon opacity="0.2043" fill="#979797" enable-background="new    " points="19.479,11.93 17.701,10.152 10.138,17.634 
				7.148,14.689 5.369,16.469 10.117,21.172 10.212,21.077 10.232,21.098 			"/>
			<polygon opacity="0.206" fill="#969696" enable-background="new    " points="19.47,11.919 17.69,10.141 10.127,17.623 
				7.138,14.679 5.358,16.459 10.106,21.16 10.201,21.066 10.222,21.087 			"/>
			<polygon opacity="0.2076" fill="#959595" enable-background="new    " points="19.458,11.908 17.68,10.13 10.116,17.611 
				7.127,14.667 5.348,16.448 10.095,21.148 10.189,21.055 10.211,21.075 			"/>
			<polygon opacity="0.2093" fill="#949494" enable-background="new    " points="19.447,11.896 17.668,10.119 10.104,17.602 
				7.116,14.656 5.337,16.437 10.084,21.139 10.179,21.044 10.2,21.064 			"/>
			<polygon opacity="0.211" fill="#939393" enable-background="new    " points="19.437,11.886 17.657,10.108 10.094,17.59 
				7.105,14.646 5.326,16.426 10.074,21.127 10.168,21.033 10.189,21.055 			"/>
			<polygon opacity="0.2126" fill="#939393" enable-background="new    " points="19.426,11.875 17.647,10.097 10.084,17.579 
				7.095,14.635 5.315,16.415 10.063,21.117 10.157,21.021 10.179,21.043 			"/>
			<polygon opacity="0.2143" fill="#929292" enable-background="new    " points="19.415,11.864 17.636,10.086 10.073,17.568 
				7.083,14.624 5.305,16.404 10.052,21.105 10.146,21.012 10.167,21.031 			"/>
			<polygon opacity="0.2159" fill="#919191" enable-background="new    " points="19.404,11.853 17.625,10.075 10.062,17.557 
				7.072,14.612 5.293,16.393 10.041,21.094 10.136,21 10.156,21.021 			"/>
			<polygon opacity="0.2176" fill="#909090" enable-background="new    " points="19.393,11.842 17.614,10.064 10.051,17.546 
				7.062,14.602 5.282,16.382 10.03,21.084 10.125,20.988 10.146,21.01 			"/>
			<polygon opacity="0.2193" fill="#8F8F8F" enable-background="new    " points="19.382,11.831 17.604,10.053 10.04,17.535 
				7.051,14.591 5.271,16.371 10.02,21.072 10.114,20.979 10.135,20.999 			"/>
			<polygon opacity="0.2209" fill="#8E8E8E" enable-background="new    " points="19.372,11.82 17.593,10.042 10.029,17.523 
				7.04,14.58 5.261,16.36 10.008,21.063 10.104,20.967 10.124,20.988 			"/>
			<polygon opacity="0.2226" fill="#8D8D8D" enable-background="new    " points="19.36,11.809 17.582,10.031 10.019,17.514 
				7.029,14.569 5.25,16.349 9.997,21.051 10.092,20.956 10.113,20.977 			"/>
			<polygon opacity="0.2243" fill="#8D8D8D" enable-background="new    " points="19.35,11.798 17.571,10.02 10.007,17.502 
				7.019,14.558 5.239,16.338 9.986,21.04 10.081,20.945 10.103,20.967 			"/>
			<polygon opacity="0.2259" fill="#8C8C8C" enable-background="new    " points="19.339,11.788 17.561,10.009 9.997,17.491 
				7.008,14.547 5.229,16.327 9.976,21.029 10.071,20.936 10.092,20.956 			"/>
			<polygon opacity="0.2276" fill="#8B8B8B" enable-background="new    " points="19.328,11.776 17.55,9.998 9.986,17.48 
				6.997,14.536 5.218,16.316 9.965,21.018 10.06,20.924 10.081,20.943 			"/>
			<polygon opacity="0.2292" fill="#8A8A8A" enable-background="new    " points="19.317,11.765 17.538,9.987 9.975,17.469 
				6.986,14.525 5.207,16.305 9.954,21.007 10.049,20.912 10.069,20.934 			"/>
			<polygon opacity="0.2309" fill="#898989" enable-background="new    " points="19.307,11.754 17.527,9.977 9.964,17.458 
				6.975,14.514 5.196,16.294 9.943,20.996 10.038,20.9 10.06,20.922 			"/>
			<polygon opacity="0.2326" fill="#888888" enable-background="new    " points="19.296,11.744 17.518,9.966 9.953,17.447 
				6.964,14.503 5.186,16.283 9.933,20.984 10.028,20.891 10.049,20.912 			"/>
			<polygon opacity="0.2342" fill="#888888" enable-background="new    " points="19.285,11.732 17.506,9.954 9.942,17.438 
				6.953,14.492 5.174,16.272 9.922,20.975 10.017,20.88 10.038,20.9 			"/>
			<polygon opacity="0.2359" fill="#878787" enable-background="new    " points="19.274,11.722 17.495,9.943 9.932,17.426 
				6.942,14.481 5.163,16.261 9.911,20.963 10.005,20.868 10.026,20.891 			"/>
			<polygon opacity="0.2375" fill="#868686" enable-background="new    " points="19.263,11.711 17.484,9.933 9.921,17.414 
				6.932,14.471 5.152,16.25 9.9,20.952 9.995,20.857 10.016,20.879 			"/>
			<polygon opacity="0.2392" fill="#858585" enable-background="new    " points="19.252,11.7 17.474,9.922 9.91,17.404 
				6.921,14.46 5.142,16.239 9.89,20.941 9.984,20.848 10.005,20.868 			"/>
			<polygon opacity="0.2409" fill="#848484" enable-background="new    " points="19.241,11.688 17.462,9.91 9.899,17.393 
				6.91,14.448 5.131,16.228 9.879,20.93 9.973,20.836 9.994,20.855 			"/>
			<polygon opacity="0.2425" fill="#838383" enable-background="new    " points="19.23,11.677 17.452,9.899 9.888,17.381 
				6.899,14.437 5.12,16.217 9.868,20.919 9.962,20.824 9.983,20.846 			"/>
			<polygon opacity="0.2442" fill="#828282" enable-background="new    " points="19.22,11.667 17.441,9.889 9.877,17.371 
				6.889,14.426 5.109,16.206 9.856,20.908 9.952,20.813 9.973,20.835 			"/>
			<polygon opacity="0.2458" fill="#828282" enable-background="new    " points="19.209,11.656 17.43,9.878 9.867,17.359 
				6.878,14.416 5.099,16.195 9.846,20.896 9.941,20.803 9.962,20.824 			"/>
			<polygon opacity="0.2475" fill="#818181" enable-background="new    " points="19.198,11.645 17.419,9.866 9.856,17.35 
				6.867,14.405 5.087,16.184 9.835,20.887 9.93,20.791 9.951,20.813 			"/>
			<polygon opacity="0.2492" fill="#808080" enable-background="new    " points="19.187,11.634 17.408,9.855 9.845,17.338 
				6.855,14.394 5.076,16.173 9.824,20.875 9.919,20.779 9.939,20.803 			"/>
			<polygon opacity="0.2508" fill="#7F7F7F" enable-background="new    " points="19.177,11.623 17.397,9.845 9.834,17.327 
				6.845,14.383 5.066,16.162 9.813,20.863 9.908,20.77 9.929,20.791 			"/>
			<polygon opacity="0.2525" fill="#7E7E7E" enable-background="new    " points="19.166,11.612 17.387,9.834 9.823,17.314 
				6.834,14.372 5.055,16.151 9.803,20.854 9.897,20.759 9.918,20.779 			"/>
			<polygon opacity="0.2542" fill="#7D7D7D" enable-background="new    " points="19.155,11.601 17.376,9.823 9.813,17.305 
				6.823,14.361 5.044,16.141 9.792,20.844 9.887,20.748 9.907,20.77 			"/>
			<polygon opacity="0.2558" fill="#7D7D7D" enable-background="new    " points="19.144,11.59 17.365,9.812 9.802,17.294 
				6.813,14.35 5.033,16.13 9.781,20.832 9.876,20.736 9.896,20.758 			"/>
			<polygon opacity="0.2575" fill="#7C7C7C" enable-background="new    " points="19.133,11.579 17.354,9.801 9.791,17.283 
				6.802,14.339 5.022,16.118 9.77,20.82 9.865,20.727 9.886,20.747 			"/>
			<polygon opacity="0.2591" fill="#7B7B7B" enable-background="new    " points="19.123,11.568 17.343,9.79 9.78,17.271 
				6.791,14.328 5.012,16.107 9.759,20.811 9.854,20.715 9.875,20.736 			"/>
			<polygon opacity="0.2608" fill="#7A7A7A" enable-background="new    " points="19.111,11.558 17.333,9.779 9.769,17.262 
				6.78,14.317 5.001,16.097 9.749,20.799 9.843,20.704 9.864,20.725 			"/>
			<polygon opacity="0.2625" fill="#797979" enable-background="new    " points="19.101,11.546 17.321,9.768 9.758,17.25 
				6.77,14.306 4.99,16.086 9.737,20.788 9.833,20.693 9.854,20.714 			"/>
			<polygon opacity="0.2641" fill="#787878" enable-background="new    " points="19.09,11.535 17.311,9.757 9.747,17.238 
				6.759,14.295 4.979,16.075 9.727,20.777 9.821,20.684 9.843,20.703 			"/>
			<polygon opacity="0.2658" fill="#777777" enable-background="new    " points="19.079,11.524 17.3,9.746 9.736,17.229 
				6.748,14.284 4.968,16.064 9.716,20.766 9.811,20.672 9.832,20.691 			"/>
			<polygon opacity="0.2674" fill="#777777" enable-background="new    " points="19.068,11.513 17.289,9.735 9.726,17.217 
				6.737,14.273 4.958,16.053 9.705,20.755 9.8,20.66 9.82,20.682 			"/>
			<polygon opacity="0.2691" fill="#767676" enable-background="new    " points="19.058,11.502 17.278,9.725 9.715,17.207 
				6.726,14.262 4.946,16.042 9.694,20.744 9.789,20.648 9.81,20.67 			"/>
			<polygon opacity="0.2708" fill="#757575" enable-background="new    " points="19.047,11.491 17.268,9.713 9.704,17.195 
				6.715,14.251 4.936,16.031 9.684,20.732 9.778,20.639 9.799,20.659 			"/>
			<polygon opacity="0.2724" fill="#747474" enable-background="new    " points="19.036,11.48 17.257,9.703 9.693,17.184 
				6.704,14.24 4.925,16.02 9.673,20.723 9.768,20.627 9.788,20.648 			"/>
			<polygon opacity="0.2741" fill="#737373" enable-background="new    " points="19.025,11.47 17.246,9.691 9.683,17.174 
				6.693,14.229 4.914,16.009 9.662,20.711 9.756,20.616 9.777,20.639 			"/>
			<polygon opacity="0.2757" fill="#727272" enable-background="new    " points="19.014,11.458 17.235,9.681 9.672,17.162 
				6.683,14.219 4.903,15.998 9.651,20.7 9.746,20.605 9.767,20.627 			"/>
			<polygon opacity="0.2774" fill="#727272" enable-background="new    " points="19.003,11.448 17.225,9.669 9.661,17.15 
				6.672,14.207 4.893,15.987 9.64,20.689 9.734,20.596 9.756,20.615 			"/>
			<polygon opacity="0.2791" fill="#717171" enable-background="new    " points="18.992,11.437 17.213,9.659 9.65,17.141 
				6.661,14.196 4.882,15.976 9.629,20.68 9.724,20.584 9.745,20.604 			"/>
			<polygon opacity="0.2807" fill="#707070" enable-background="new    " points="18.981,11.426 17.203,9.647 9.64,17.13 
				6.65,14.186 4.871,15.965 9.618,20.668 9.713,20.572 9.734,20.594 			"/>
			<polygon opacity="0.2824" fill="#6F6F6F" enable-background="new    " points="18.971,11.415 17.191,9.637 9.628,17.119 
				6.639,14.174 4.86,15.954 9.607,20.656 9.702,20.563 9.723,20.582 			"/>
			<polygon opacity="0.2841" fill="#6E6E6E" enable-background="new    " points="18.96,11.403 17.181,9.625 9.618,17.107 
				6.629,14.164 4.849,15.943 9.597,20.646 9.691,20.551 9.712,20.57 			"/>
			<polygon opacity="0.2857" fill="#6D6D6D" enable-background="new    " points="18.949,11.393 17.17,9.615 9.607,17.098 
				6.617,14.152 4.838,15.933 9.586,20.635 9.681,20.54 9.702,20.561 			"/>
			<polygon opacity="0.2874" fill="#6C6C6C" enable-background="new    " points="18.938,11.382 17.159,9.604 9.596,17.086 
				6.606,14.142 4.828,15.922 9.575,20.624 9.669,20.529 9.69,20.55 			"/>
			<polygon opacity="0.289" fill="#6C6C6C" enable-background="new    " points="18.927,11.371 17.148,9.593 9.585,17.074 
				6.596,14.131 4.816,15.91 9.564,20.611 9.659,20.518 9.68,20.539 			"/>
			<polygon opacity="0.2907" fill="#6B6B6B" enable-background="new    " points="18.917,11.36 17.138,9.582 9.574,17.063 
				6.585,14.119 4.806,15.899 9.554,20.602 9.648,20.507 9.669,20.527 			"/>
			<polygon opacity="0.2924" fill="#6A6A6A" enable-background="new    " points="18.905,11.349 17.127,9.571 9.563,17.053 
				6.574,14.108 4.795,15.889 9.543,20.591 9.637,20.496 9.658,20.518 			"/>
			<polygon opacity="0.294" fill="#696969" enable-background="new    " points="18.895,11.338 17.116,9.56 9.553,17.042 
				6.563,14.098 4.784,15.878 9.531,20.58 9.627,20.484 9.647,20.506 			"/>
			<polygon opacity="0.2957" fill="#686868" enable-background="new    " points="18.884,11.327 17.105,9.549 9.542,17.031 
				6.553,14.087 4.773,15.866 9.521,20.568 9.615,20.475 9.636,20.495 			"/>
			<polygon opacity="0.2973" fill="#676767" enable-background="new    " points="18.873,11.316 17.094,9.538 9.531,17.02 
				6.542,14.076 4.763,15.855 9.51,20.559 9.605,20.463 9.626,20.484 			"/>
			<polygon opacity="0.299" fill="#676767" enable-background="new    " points="18.862,11.305 17.083,9.527 9.52,17.01 
				6.531,14.065 4.752,15.845 9.499,20.547 9.594,20.452 9.615,20.473 			"/>
			<polygon opacity="0.3007" fill="#666666" enable-background="new    " points="18.852,11.294 17.072,9.516 9.509,16.998 
				6.52,14.054 4.741,15.834 9.488,20.536 9.583,20.441 9.604,20.462 			"/>
			<polygon opacity="0.3023" fill="#656565" enable-background="new    " points="18.841,11.283 17.062,9.505 9.498,16.986 
				6.509,14.043 4.73,15.822 9.478,20.525 9.572,20.43 9.593,20.451 			"/>
			<polygon opacity="0.304" fill="#646464" enable-background="new    " points="18.83,11.272 17.051,9.494 9.487,16.977 
				6.499,14.032 4.719,15.812 9.467,20.514 9.562,20.42 9.583,20.439 			"/>
			<polygon opacity="0.3056" fill="#636363" enable-background="new    " points="18.819,11.262 17.04,9.483 9.477,16.965 
				6.488,14.021 4.708,15.801 9.456,20.503 9.551,20.408 9.571,20.43 			"/>
			<polygon opacity="0.3073" fill="#626262" enable-background="new    " points="18.808,11.25 17.029,9.473 9.466,16.954 
				6.477,14.01 4.698,15.79 9.445,20.492 9.54,20.396 9.561,20.418 			"/>
			<polygon opacity="0.309" fill="#616161" enable-background="new    " points="18.797,11.239 17.019,9.461 9.455,16.943 
				6.466,13.999 4.687,15.779 9.434,20.48 9.529,20.387 9.55,20.406 			"/>
			<polygon opacity="0.3106" fill="#616161" enable-background="new    " points="18.787,11.229 17.008,9.45 9.444,16.934 
				6.455,13.988 4.676,15.768 9.423,20.471 9.518,20.375 9.539,20.396 			"/>
			<polygon opacity="0.3123" fill="#606060" enable-background="new    " points="18.775,11.218 16.997,9.439 9.434,16.922 
				6.444,13.978 4.665,15.757 9.412,20.459 9.507,20.363 9.528,20.387 			"/>
			<polygon opacity="0.314" fill="#5F5F5F" enable-background="new    " points="18.765,11.207 16.986,9.429 9.422,16.91 
				6.434,13.966 4.654,15.746 9.401,20.447 9.497,20.354 9.518,20.375 			"/>
			<polygon opacity="0.3156" fill="#5E5E5E" enable-background="new    " points="18.754,11.196 16.976,9.418 9.412,16.898 
				6.423,13.956 4.643,15.735 9.391,20.438 9.485,20.344 9.506,20.363 			"/>
			<polygon opacity="0.3173" fill="#5D5D5D" enable-background="new    " points="18.743,11.185 16.964,9.406 9.401,16.889 
				6.412,13.944 4.632,15.724 9.38,20.428 9.475,20.332 9.496,20.354 			"/>
			<polygon opacity="0.3189" fill="#5C5C5C" enable-background="new    " points="18.732,11.174 16.954,9.396 9.39,16.878 
				6.401,13.933 4.622,15.713 9.369,20.416 9.464,20.32 9.485,20.342 			"/>
			<polygon opacity="0.3206" fill="#5B5B5B" enable-background="new    " points="18.722,11.163 16.942,9.385 9.379,16.866 
				6.39,13.922 4.61,15.702 9.358,20.404 9.453,20.311 9.474,20.331 			"/>
			<polygon opacity="0.3223" fill="#5B5B5B" enable-background="new    " points="18.711,11.152 16.932,9.374 9.368,16.855 
				6.379,13.911 4.6,15.691 9.348,20.395 9.442,20.299 9.463,20.32 			"/>
			<polygon opacity="0.3239" fill="#5A5A5A" enable-background="new    " points="18.7,11.141 16.921,9.362 9.357,16.846 
				6.368,13.9 4.589,15.68 9.336,20.383 9.432,20.287 9.452,20.309 			"/>
			<polygon opacity="0.3256" fill="#595959" enable-background="new    " points="18.689,11.13 16.91,9.352 9.347,16.834 
				6.357,13.89 4.578,15.669 9.326,20.372 9.42,20.277 9.441,20.298 			"/>
			<polygon opacity="0.3272" fill="#585858" enable-background="new    " points="18.678,11.119 16.899,9.341 9.336,16.822 
				6.347,13.878 4.567,15.658 9.315,20.361 9.41,20.266 9.431,20.287 			"/>
			<polygon opacity="0.3289" fill="#575757" enable-background="new    " points="18.667,11.108 16.889,9.33 9.325,16.813 
				6.336,13.868 4.557,15.647 9.304,20.35 9.398,20.255 9.42,20.275 			"/>
			<polygon opacity="0.3306" fill="#565656" enable-background="new    " points="18.656,11.097 16.877,9.318 9.314,16.801 
				6.325,13.856 4.546,15.637 9.293,20.339 9.388,20.244 9.409,20.266 			"/>
			<polygon opacity="0.3322" fill="#565656" enable-background="new    " points="18.646,11.086 16.867,9.308 9.303,16.789 
				6.314,13.846 4.535,15.626 9.283,20.328 9.377,20.232 9.398,20.254 			"/>
			<polygon opacity="0.3339" fill="#555555" enable-background="new    " points="18.635,11.075 16.856,9.297 9.292,16.779 
				6.303,13.835 4.524,15.614 9.271,20.316 9.366,20.223 9.388,20.243 			"/>
			<polygon opacity="0.3355" fill="#545454" enable-background="new    " points="18.624,11.064 16.845,9.286 9.281,16.768 
				6.293,13.824 4.513,15.604 9.261,20.307 9.355,20.211 9.376,20.232 			"/>
			<polygon opacity="0.3372" fill="#535353" enable-background="new    " points="18.613,11.053 16.834,9.275 9.271,16.757 
				6.281,13.813 4.502,15.593 9.25,20.295 9.345,20.2 9.366,20.223 			"/>
			<polygon opacity="0.3389" fill="#525252" enable-background="new    " points="18.602,11.042 16.823,9.264 9.26,16.746 
				6.271,13.802 4.491,15.582 9.239,20.284 9.334,20.189 9.355,20.211 			"/>
			<polygon opacity="0.3405" fill="#515151" enable-background="new    " points="18.591,11.031 16.813,9.253 9.249,16.734 
				6.26,13.791 4.48,15.57 9.229,20.273 9.323,20.178 9.344,20.199 			"/>
			<polygon opacity="0.3422" fill="#505050" enable-background="new    " points="18.581,11.021 16.802,9.242 9.238,16.725 
				6.249,13.78 4.47,15.56 9.218,20.262 9.313,20.167 9.333,20.188 			"/>
			<polygon opacity="0.3439" fill="#505050" enable-background="new    " points="18.569,11.009 16.791,9.231 9.228,16.713 
				6.238,13.77 4.459,15.549 9.207,20.251 9.301,20.156 9.322,20.178 			"/>
			<polygon opacity="0.3455" fill="#4F4F4F" enable-background="new    " points="18.559,10.999 16.78,9.22 9.217,16.702 
				6.228,13.758 4.448,15.538 9.196,20.24 9.291,20.145 9.312,20.166 			"/>
			<polygon opacity="0.3472" fill="#4E4E4E" enable-background="new    " points="18.548,10.987 16.77,9.209 9.206,16.691 
				6.216,13.747 4.438,15.526 9.185,20.229 9.279,20.134 9.301,20.154 			"/>
			<polygon opacity="0.3488" fill="#4D4D4D" enable-background="new    " points="18.537,10.977 16.758,9.198 9.195,16.682 
				6.206,13.736 4.427,15.516 9.174,20.219 9.269,20.123 9.29,20.145 			"/>
			<polygon opacity="0.3505" fill="#4C4C4C" enable-background="new    " points="18.526,10.966 16.748,9.188 9.184,16.669 
				6.195,13.725 4.416,15.505 9.163,20.207 9.258,20.111 9.279,20.134 			"/>
			<polygon opacity="0.3522" fill="#4B4B4B" enable-background="new    " points="18.516,10.955 16.736,9.176 9.173,16.658 
				6.185,13.714 4.405,15.494 9.152,20.195 9.247,20.102 9.268,20.123 			"/>
			<polygon opacity="0.3538" fill="#4B4B4B" enable-background="new    " points="18.505,10.943 16.726,9.166 9.162,16.646 
				6.173,13.703 4.395,15.483 9.142,20.186 9.236,20.091 9.258,20.111 			"/>
			<polygon opacity="0.3555" fill="#4A4A4A" enable-background="new    " points="18.494,10.933 16.715,9.154 9.151,16.637 
				6.163,13.692 4.383,15.472 9.131,20.175 9.226,20.08 9.246,20.102 			"/>
			<polygon opacity="0.3571" fill="#494949" enable-background="new    " points="18.483,10.922 16.704,9.144 9.141,16.625 
				6.152,13.682 4.373,15.461 9.12,20.163 9.215,20.068 9.235,20.09 			"/>
			<polygon opacity="0.3588" fill="#484848" enable-background="new    " points="18.472,10.911 16.693,9.133 9.13,16.613 
				6.141,13.67 4.361,15.45 9.109,20.152 9.204,20.059 9.225,20.079 			"/>
			<polygon opacity="0.3605" fill="#474747" enable-background="new    " points="18.461,10.9 16.683,9.122 9.119,16.604 
				6.13,13.659 4.351,15.439 9.098,20.143 9.193,20.047 9.214,20.068 			"/>
			<polygon opacity="0.3621" fill="#464646" enable-background="new    " points="18.451,10.889 16.672,9.111 9.108,16.594 
				6.119,13.648 4.34,15.428 9.087,20.131 9.182,20.035 9.203,20.057 			"/>
			<polygon opacity="0.3638" fill="#454545" enable-background="new    " points="18.439,10.878 16.661,9.1 9.098,16.582 
				6.108,13.637 4.329,15.417 9.076,20.12 9.171,20.023 9.192,20.046 			"/>
			<polygon opacity="0.3654" fill="#454545" enable-background="new    " points="18.429,10.867 16.65,9.089 9.087,16.57 
				6.098,13.626 4.318,15.406 9.065,20.109 9.16,20.014 9.182,20.035 			"/>
			<polygon opacity="0.3671" fill="#444444" enable-background="new    " points="18.418,10.856 16.64,9.078 9.076,16.561 
				6.087,13.615 4.308,15.396 9.055,20.098 9.149,20.003 9.171,20.023 			"/>
			<polygon opacity="0.3688" fill="#434343" enable-background="new    " points="18.407,10.845 16.628,9.067 9.065,16.549 
				6.076,13.604 4.297,15.384 9.044,20.087 9.139,19.992 9.16,20.014 			"/>
			<polygon opacity="0.3704" fill="#424242" enable-background="new    " points="18.396,10.834 16.618,9.056 9.054,16.538 
				6.065,13.594 4.285,15.374 9.033,20.076 9.128,19.98 9.148,20.002 			"/>
			<polygon opacity="0.3721" fill="#414141" enable-background="new    " points="18.386,10.823 16.606,9.045 9.043,16.527 
				6.054,13.583 4.275,15.362 9.022,20.064 9.117,19.971 9.138,19.991 			"/>
			<polygon opacity="0.3738" fill="#404040" enable-background="new    " points="18.375,10.813 16.596,9.034 9.033,16.516 
				6.043,13.572 4.264,15.352 9.011,20.055 9.106,19.959 9.127,19.98 			"/>
			<polygon opacity="0.3754" fill="#404040" enable-background="new    " points="18.364,10.801 16.585,9.023 9.021,16.505 
				6.032,13.561 4.253,15.34 9,20.043 9.096,19.947 9.116,19.969 			"/>
			<polygon opacity="0.3771" fill="#3F3F3F" enable-background="new    " points="18.353,10.79 16.574,9.012 9.011,16.494 
				6.021,13.55 4.243,15.33 8.99,20.031 9.085,19.938 9.105,19.958 			"/>
			<polygon opacity="0.3787" fill="#3E3E3E" enable-background="new    " points="18.342,10.779 16.563,9.001 9,16.483 
				6.011,13.539 4.231,15.318 8.979,20.021 9.074,19.926 9.095,19.947 			"/>
			<polygon opacity="0.3804" fill="#3D3D3D" enable-background="new    " points="18.331,10.768 16.552,8.99 8.989,16.472 6,13.528 
				4.221,15.308 8.968,20.012 9.063,19.915 9.084,19.938 			"/>
			<polygon opacity="0.3821" fill="#3C3C3C" enable-background="new    " points="18.321,10.757 16.542,8.979 8.979,16.461 
				5.989,13.517 4.209,15.297 8.958,19.999 9.052,19.904 9.073,19.926 			"/>
			<polygon opacity="0.3837" fill="#3B3B3B" enable-background="new    " points="18.31,10.747 16.531,8.969 8.968,16.45 
				5.978,13.506 4.199,15.286 8.947,19.988 9.042,19.893 9.063,19.914 			"/>
			<polygon opacity="0.3854" fill="#3A3A3A" enable-background="new    " points="18.299,10.735 16.52,8.957 8.957,16.439 
				5.967,13.495 4.188,15.274 8.936,19.979 9.03,19.882 9.051,19.902 			"/>
			<polygon opacity="0.387" fill="#3A3A3A" enable-background="new    " points="18.288,10.725 16.509,8.946 8.946,16.428 
				5.957,13.484 4.177,15.264 8.925,19.967 9.02,19.871 9.041,19.893 			"/>
			<polygon opacity="0.3887" fill="#393939" enable-background="new    " points="18.277,10.713 16.499,8.936 8.935,16.417 
				5.945,13.473 4.167,15.253 8.914,19.955 9.009,19.859 9.03,19.882 			"/>
			<polygon opacity="0.3904" fill="#383838" enable-background="new    " points="18.267,10.703 16.487,8.925 8.924,16.406 
				5.935,13.462 4.155,15.242 8.903,19.943 8.998,19.85 9.019,19.87 			"/>
			<polygon opacity="0.392" fill="#373737" enable-background="new    " points="18.255,10.692 16.477,8.913 8.913,16.396 
				5.924,13.451 4.145,15.23 8.893,19.934 8.987,19.839 9.008,19.859 			"/>
			<polygon opacity="0.3937" fill="#363636" enable-background="new    " points="18.245,10.681 16.466,8.902 8.902,16.385 
				5.914,13.44 4.134,15.22 8.881,19.923 8.977,19.828 8.998,19.85 			"/>
			<polygon opacity="0.3953" fill="#353535" enable-background="new    " points="18.234,10.67 16.455,8.892 8.892,16.374 
				5.902,13.429 4.123,15.209 8.871,19.911 8.965,19.816 8.986,19.838 			"/>
			<polygon opacity="0.397" fill="#353535" enable-background="new    " points="18.223,10.659 16.444,8.881 8.881,16.363 
				5.892,13.418 4.112,15.198 8.86,19.9 8.955,19.807 8.976,19.826 			"/>
			<polygon opacity="0.3987" fill="#343434" enable-background="new    " points="18.212,10.647 16.434,8.869 8.87,16.352 
				5.881,13.407 4.102,15.187 8.849,19.891 8.943,19.795 8.965,19.814 			"/>
			<polygon opacity="0.4003" fill="#333333" enable-background="new    " points="18.201,10.637 16.422,8.858 8.859,16.34 
				5.87,13.396 4.091,15.176 8.838,19.879 8.933,19.783 8.954,19.805 			"/>
			<polygon opacity="0.402" fill="#323232" enable-background="new    " points="18.19,10.626 16.412,8.848 8.848,16.33 
				5.859,13.386 4.08,15.165 8.827,19.867 8.922,19.771 8.943,19.794 			"/>
			<polygon opacity="0.4037" fill="#313131" enable-background="new    " points="18.18,10.615 16.401,8.837 8.837,16.318 
				5.849,13.374 4.069,15.154 8.816,19.857 8.911,19.762 8.933,19.783 			"/>
			<polygon opacity="0.4053" fill="#303030" enable-background="new    " points="18.169,10.604 16.39,8.826 8.827,16.308 
				5.837,13.364 4.058,15.143 8.806,19.846 8.9,19.751 8.921,19.771 			"/>
			<polygon opacity="0.407" fill="#2F2F2F" enable-background="new    " points="18.158,10.593 16.379,8.815 8.815,16.297 
				5.827,13.353 4.047,15.132 8.795,19.835 8.89,19.738 8.911,19.762 			"/>
			<polygon opacity="0.4086" fill="#2F2F2F" enable-background="new    " points="18.147,10.582 16.369,8.804 8.805,16.286 
				5.816,13.342 4.036,15.121 8.784,19.824 8.878,19.729 8.9,19.75 			"/>
			<polygon opacity="0.4103" fill="#2E2E2E" enable-background="new    " points="18.137,10.571 16.357,8.793 8.794,16.275 
				5.805,13.331 4.025,15.11 8.773,19.813 8.868,19.719 8.889,19.738 			"/>
			<polygon opacity="0.412" fill="#2D2D2D" enable-background="new    " points="18.125,10.56 16.347,8.782 8.783,16.264 
				5.794,13.319 4.015,15.1 8.763,19.803 8.857,19.707 8.878,19.729 			"/>
			<polygon opacity="0.4136" fill="#2C2C2C" enable-background="new    " points="18.115,10.549 16.336,8.771 8.772,16.253 
				5.783,13.309 4.004,15.088 8.751,19.791 8.846,19.695 8.867,19.717 			"/>
			<polygon opacity="0.4153" fill="#2B2B2B" enable-background="new    " points="18.104,10.539 16.325,8.76 8.762,16.242 
				5.772,13.298 3.993,15.078 8.74,19.779 8.835,19.686 8.856,19.706 			"/>
			<polygon opacity="0.4169" fill="#2A2A2A" enable-background="new    " points="18.093,10.527 16.314,8.749 8.75,16.231 
				5.762,13.287 3.982,15.066 8.729,19.77 8.824,19.674 8.846,19.695 			"/>
			<polygon opacity="0.4186" fill="#2A2A2A" enable-background="new    " points="18.082,10.517 16.303,8.738 8.74,16.22 
				5.751,13.276 3.972,15.056 8.719,19.759 8.814,19.663 8.835,19.686 			"/>
			<polygon opacity="0.4203" fill="#292929" enable-background="new    " points="18.071,10.506 16.292,8.727 8.729,16.209 
				5.74,13.265 3.96,15.044 8.708,19.747 8.803,19.652 8.824,19.673 			"/>
			<polygon opacity="0.4219" fill="#282828" enable-background="new    " points="18.061,10.494 16.281,8.716 8.718,16.198 
				5.729,13.254 3.95,15.034 8.697,19.736 8.792,19.641 8.813,19.662 			"/>
			<polygon opacity="0.4236" fill="#272727" enable-background="new    " points="18.05,10.483 16.271,8.705 8.707,16.188 
				5.718,13.243 3.939,15.022 8.687,19.727 8.781,19.63 8.802,19.65 			"/>
			<polygon opacity="0.4252" fill="#262626" enable-background="new    " points="18.039,10.472 16.26,8.694 8.696,16.176 
				5.707,13.232 3.928,15.012 8.676,19.715 8.771,19.619 8.791,19.641 			"/>
			<polygon opacity="0.4269" fill="#252525" enable-background="new    " points="18.028,10.461 16.249,8.683 8.686,16.166 
				5.696,13.221 3.917,15.001 8.665,19.703 8.759,19.607 8.781,19.629 			"/>
			<polygon opacity="0.4286" fill="#242424" enable-background="new    " points="18.017,10.451 16.238,8.672 8.675,16.154 
				5.686,13.21 3.906,14.99 8.654,19.691 8.749,19.598 8.77,19.618 			"/>
			<polygon opacity="0.4302" fill="#242424" enable-background="new    " points="18.007,10.439 16.228,8.662 8.664,16.143 
				5.675,13.199 3.896,14.979 8.643,19.682 8.738,19.586 8.759,19.607 			"/>
			<polygon opacity="0.4319" fill="#232323" enable-background="new    " points="17.996,10.429 16.217,8.65 8.653,16.132 
				5.664,13.188 3.885,14.968 8.632,19.671 8.727,19.575 8.748,19.598 			"/>
			<polygon opacity="0.4336" fill="#222222" enable-background="new    " points="17.985,10.418 16.206,8.64 8.642,16.121 
				5.653,13.177 3.874,14.957 8.622,19.66 8.716,19.564 8.737,19.586 			"/>
			<polygon opacity="0.4352" fill="#212121" enable-background="new    " points="17.974,10.407 16.195,8.628 8.631,16.11 
				5.643,13.166 3.863,14.946 8.611,19.648 8.706,19.555 8.726,19.574 			"/>
			<polygon opacity="0.4369" fill="#202020" enable-background="new    " points="17.963,10.396 16.185,8.618 8.621,16.1 
				5.631,13.155 3.852,14.935 8.6,19.639 8.694,19.542 8.716,19.563 			"/>
			<polygon opacity="0.4385" fill="#1F1F1F" enable-background="new    " points="17.952,10.385 16.173,8.606 8.61,16.089 
				5.621,13.145 3.841,14.924 8.589,19.627 8.684,19.531 8.705,19.553 			"/>
			<polygon opacity="0.4402" fill="#1E1E1E" enable-background="new    " points="17.941,10.374 16.163,8.596 8.599,16.078 
				5.61,13.133 3.831,14.913 8.578,19.616 8.673,19.521 8.694,19.542 			"/>
			<polygon opacity="0.4419" fill="#1E1E1E" enable-background="new    " points="17.931,10.363 16.151,8.584 8.588,16.067 
				5.599,13.123 3.82,14.902 8.567,19.605 8.662,19.51 8.683,19.531 			"/>
			<polygon opacity="0.4435" fill="#1D1D1D" enable-background="new    " points="17.919,10.352 16.141,8.574 8.577,16.056 
				5.588,13.111 3.809,14.891 8.556,19.594 8.651,19.499 8.672,19.521 			"/>
			<polygon opacity="0.4452" fill="#1C1C1C" enable-background="new    " points="17.909,10.341 16.13,8.563 8.566,16.044 
				5.578,13.101 3.798,14.88 8.545,19.583 8.641,19.486 8.661,19.509 			"/>
			<polygon opacity="0.4468" fill="#1B1B1B" enable-background="new    " points="17.898,10.33 16.119,8.552 8.556,16.034 
				5.566,13.089 3.787,14.869 8.535,19.572 8.629,19.477 8.65,19.498 			"/>
			<polygon opacity="0.4485" fill="#1A1A1A" enable-background="new    " points="17.887,10.319 16.108,8.541 8.544,16.022 
				5.556,13.078 3.776,14.858 8.524,19.563 8.619,19.466 8.64,19.486 			"/>
			<polygon opacity="0.4502" fill="#191919" enable-background="new    " points="17.876,10.308 16.098,8.53 8.534,16.012 
				5.545,13.068 3.766,14.847 8.513,19.55 8.607,19.455 8.629,19.477 			"/>
			<polygon opacity="0.4518" fill="#191919" enable-background="new    " points="17.865,10.297 16.086,8.519 8.523,16.001 
				5.534,13.057 3.754,14.836 8.502,19.539 8.597,19.443 8.618,19.466 			"/>
			<polygon opacity="0.4535" fill="#181818" enable-background="new    " points="17.855,10.286 16.076,8.508 8.512,15.99 
				5.523,13.046 3.744,14.825 8.491,19.527 8.586,19.434 8.607,19.454 			"/>
			<polygon opacity="0.4551" fill="#171717" enable-background="new    " points="17.844,10.275 16.065,8.497 8.502,15.979 
				5.513,13.035 3.733,14.814 8.48,19.518 8.575,19.422 8.596,19.443 			"/>
			<polygon opacity="0.4568" fill="#161616" enable-background="new    " points="17.833,10.264 16.054,8.486 8.491,15.968 
				5.501,13.023 3.722,14.804 8.47,19.507 8.564,19.411 8.585,19.434 			"/>
			<polygon opacity="0.4585" fill="#151515" enable-background="new    " points="17.822,10.253 16.043,8.475 8.48,15.957 
				5.491,13.013 3.711,14.792 8.459,19.495 8.554,19.398 8.574,19.422 			"/>
			<polygon opacity="0.4601" fill="#141414" enable-background="new    " points="17.812,10.243 16.032,8.464 8.469,15.946 
				5.48,13.002 3.7,14.782 8.448,19.484 8.543,19.389 8.563,19.41 			"/>
			<polygon opacity="0.4618" fill="#131313" enable-background="new    " points="17.801,10.231 16.021,8.453 8.458,15.935 
				5.469,12.991 3.69,14.771 8.438,19.475 8.532,19.378 8.553,19.398 			"/>
			<polygon opacity="0.4635" fill="#131313" enable-background="new    " points="17.79,10.221 16.011,8.442 8.448,15.924 
				5.458,12.98 3.679,14.76 8.427,19.463 8.521,19.367 8.542,19.389 			"/>
			<polygon opacity="0.4651" fill="#121212" enable-background="new    " points="17.779,10.21 16,8.432 8.437,15.913 5.447,12.969 
				3.668,14.749 8.416,19.451 8.51,19.355 8.531,19.378 			"/>
			<polygon opacity="0.4668" fill="#111111" enable-background="new    " points="17.768,10.198 15.989,8.42 8.426,15.902 
				5.437,12.958 3.657,14.738 8.404,19.441 8.5,19.346 8.521,19.367 			"/>
			<polygon opacity="0.4684" fill="#101010" enable-background="new    " points="17.757,10.188 15.979,8.409 8.415,15.892 
				5.426,12.947 3.646,14.727 8.394,19.43 8.488,19.334 8.509,19.355 			"/>
			<polygon opacity="0.4701" fill="#0F0F0F" enable-background="new    " points="17.747,10.177 15.967,8.398 8.404,15.88 
				5.415,12.936 3.636,14.716 8.383,19.419 8.478,19.322 8.499,19.346 			"/>
			<polygon opacity="0.4718" fill="#0E0E0E" enable-background="new    " points="17.735,10.166 15.957,8.388 8.394,15.869 
				5.404,12.925 3.625,14.705 8.372,19.408 8.467,19.313 8.488,19.334 			"/>
			<polygon opacity="0.4734" fill="#0E0E0E" enable-background="new    " points="17.725,10.155 15.946,8.376 8.382,15.858 
				5.393,12.914 3.614,14.694 8.361,19.396 8.456,19.301 8.477,19.322 			"/>
			<polygon opacity="0.4751" fill="#0D0D0D" enable-background="new    " points="17.714,10.144 15.935,8.366 8.372,15.847 
				5.382,12.903 3.603,14.683 8.351,19.387 8.445,19.29 8.466,19.313 			"/>
			<polygon opacity="0.4767" fill="#0C0C0C" enable-background="new    " points="17.703,10.133 15.924,8.355 8.361,15.836 
				5.371,12.892 3.592,14.672 8.34,19.375 8.435,19.279 8.456,19.301 			"/>
			<polygon opacity="0.4784" fill="#0B0B0B" enable-background="new    " points="17.692,10.122 15.914,8.344 8.35,15.825 
				5.36,12.881 3.582,14.661 8.329,19.363 8.423,19.27 8.444,19.29 			"/>
			<polygon opacity="0.4801" fill="#0A0A0A" enable-background="new    " points="17.681,10.111 15.902,8.333 8.339,15.815 
				5.35,12.87 3.57,14.65 8.318,19.354 8.413,19.258 8.434,19.279 			"/>
			<polygon opacity="0.4817" fill="#090909" enable-background="new    " points="17.671,10.1 15.892,8.322 8.328,15.804 
				5.339,12.859 3.56,14.639 8.307,19.342 8.402,19.246 8.423,19.268 			"/>
			<polygon opacity="0.4834" fill="#080808" enable-background="new    " points="17.66,10.089 15.881,8.311 8.317,15.793 
				5.328,12.849 3.549,14.628 8.296,19.331 8.391,19.234 8.412,19.257 			"/>
			<polygon opacity="0.485" fill="#080808" enable-background="new    " points="17.649,10.078 15.87,8.3 8.307,15.782 
				5.317,12.837 3.538,14.617 8.286,19.32 8.38,19.225 8.401,19.246 			"/>
			<polygon opacity="0.4867" fill="#070707" enable-background="new    " points="17.638,10.067 15.859,8.289 8.296,15.771 
				5.307,12.827 3.527,14.606 8.275,19.311 8.37,19.214 8.391,19.234 			"/>
			<polygon opacity="0.4884" fill="#060606" enable-background="new    " points="17.627,10.057 15.849,8.278 8.285,15.76 
				5.295,12.815 3.516,14.595 8.264,19.298 8.358,19.203 8.379,19.225 			"/>
			<polygon opacity="0.49" fill="#050505" enable-background="new    " points="17.617,10.045 15.837,8.267 8.274,15.749 
				5.285,12.805 3.506,14.584 8.253,19.287 8.348,19.191 8.369,19.213 			"/>
			<polygon opacity="0.4917" fill="#040404" enable-background="new    " points="17.605,10.034 15.827,8.256 8.263,15.738 
				5.274,12.793 3.495,14.573 8.242,19.275 8.337,19.182 8.358,19.202 			"/>
			<polygon opacity="0.4934" fill="#030303" enable-background="new    " points="17.595,10.023 15.816,8.245 8.252,15.727 
				5.263,12.782 3.484,14.563 8.231,19.266 8.326,19.17 8.347,19.191 			"/>
			<polygon opacity="0.495" fill="#030303" enable-background="new    " points="17.583,10.012 15.805,8.234 8.242,15.716 
				5.252,12.772 3.473,14.551 8.22,19.254 8.315,19.158 8.336,19.182 			"/>
			<polygon opacity="0.4967" fill="#020202" enable-background="new    " points="17.573,10.001 15.794,8.223 8.23,15.705 
				5.242,12.761 3.462,14.541 8.209,19.243 8.304,19.146 8.326,19.169 			"/>
			<polygon opacity="0.4983" fill="#010101" enable-background="new    " points="17.562,9.99 15.784,8.212 8.22,15.694 5.23,12.75 
				3.451,14.529 8.199,19.232 8.293,19.137 8.314,19.158 			"/>
			<polygon opacity="0.5" enable-background="new    " points="17.551,9.979 15.772,8.201 8.209,15.683 5.22,12.739 3.44,14.519 
				8.188,19.223 8.283,19.126 8.304,19.146 			"/>
		</g>
		<polygon fill="#EFE940" points="17.551,9.979 15.772,8.201 8.209,15.683 5.22,12.739 3.44,14.519 8.188,19.223 8.283,19.126 
			8.304,19.146 		"/>
	</g>
</g>
</svg>
